<svg width="57" height="38" viewBox="0 0 57 38" fill="none" xmlns="http://www.w3.org/2000/svg">
<mask id="path-1-inside-1_2902_1004" fill="white">
<path d="M57 19C57 29.4934 48.4934 38 38 38C27.5066 38 19 29.4934 19 19C19 8.50659 27.5066 0 38 0C48.4934 0 57 8.50659 57 19ZM21.7285 19C21.7285 27.9865 29.0135 35.2715 38 35.2715C46.9865 35.2715 54.2715 27.9865 54.2715 19C54.2715 10.0135 46.9865 2.72853 38 2.72853C29.0135 2.72853 21.7285 10.0135 21.7285 19Z"/>
</mask>
<path d="M57 19C57 29.4934 48.4934 38 38 38C27.5066 38 19 29.4934 19 19C19 8.50659 27.5066 0 38 0C48.4934 0 57 8.50659 57 19ZM21.7285 19C21.7285 27.9865 29.0135 35.2715 38 35.2715C46.9865 35.2715 54.2715 27.9865 54.2715 19C54.2715 10.0135 46.9865 2.72853 38 2.72853C29.0135 2.72853 21.7285 10.0135 21.7285 19Z" fill="#6D6CE3" stroke="#6D6CE3" stroke-width="6" mask="url(#path-1-inside-1_2902_1004)"/>
<mask id="path-2-inside-2_2902_1004" fill="white">
<path d="M38 19C38 29.4934 29.4934 38 19 38C8.50659 38 0 29.4934 0 19C0 8.50659 8.50659 0 19 0C29.4934 0 38 8.50659 38 19ZM2.72853 19C2.72853 27.9865 10.0135 35.2715 19 35.2715C27.9865 35.2715 35.2715 27.9865 35.2715 19C35.2715 10.0135 27.9865 2.72853 19 2.72853C10.0135 2.72853 2.72853 10.0135 2.72853 19Z"/>
</mask>
<path d="M38 19C38 29.4934 29.4934 38 19 38C8.50659 38 0 29.4934 0 19C0 8.50659 8.50659 0 19 0C29.4934 0 38 8.50659 38 19ZM2.72853 19C2.72853 27.9865 10.0135 35.2715 19 35.2715C27.9865 35.2715 35.2715 27.9865 35.2715 19C35.2715 10.0135 27.9865 2.72853 19 2.72853C10.0135 2.72853 2.72853 10.0135 2.72853 19Z" fill="#6D6CE3" stroke="#6D6CE3" stroke-width="6" mask="url(#path-2-inside-2_2902_1004)"/>
</svg>
