<svg width="128" height="134" viewBox="0 0 128 134" fill="none" xmlns="http://www.w3.org/2000/svg">
<path fill-rule="evenodd" clip-rule="evenodd" d="M69.9791 6.34325C82.1452 5.87618 95.0636 -4.14292 105.618 1.971C116.169 8.08248 116.666 23.3407 119.784 35.193C122.29 44.7171 120.808 54.3821 121.98 64.164C123.341 75.5207 130.26 86.4474 127.248 97.4766C124.046 109.2 116.718 122.005 105.195 125.619C93.3325 129.339 82.3313 114.091 69.9791 115.437C55.1876 117.048 44.7696 136.134 30.0728 133.803C16.2187 131.606 3.69236 118.261 0.716318 104.453C-2.34087 90.2686 15.0542 78.6793 15.0637 64.164C15.0732 49.6646 -4.01297 37.581 0.768891 23.9053C5.27272 11.0248 22.7299 7.98388 35.874 4.64855C47.1028 1.79925 58.408 6.78747 69.9791 6.34325Z" fill="#6D6CE3"/>
<path d="M44.5119 41.143C43.9302 41.3207 42.9329 42.2758 42.7548 42.8421C42.6479 43.1975 42.6123 46.7512 42.6123 57.8677V72.4379L42.9091 72.7044C43.2891 73.0709 43.8352 73.0709 44.2151 72.7044L44.5119 72.4379V61.1548V49.8829H63.5084H82.5048V61.1548V72.4379L82.8016 72.7044C83.1815 73.0709 83.7277 73.0709 84.1076 72.7044L84.4044 72.4379V57.8677C84.4044 46.7512 84.3688 43.1975 84.2619 42.8421C84.072 42.2313 83.0865 41.3096 82.4335 41.1319C81.7687 40.9542 45.1412 40.9542 44.5119 41.143ZM82.208 43.0531C82.5048 43.3197 82.5048 43.3197 82.5048 45.7184V48.1061H63.5084H44.5119V45.7184C44.5119 43.3197 44.5119 43.3197 44.8088 43.0531L45.0937 42.7755H63.5084H81.923L82.208 43.0531Z" fill="white"/>
<path d="M36.913 46.4735C36.3313 46.6512 35.334 47.6062 35.1559 48.1726C34.954 48.8167 34.9422 81.1333 35.1559 81.7663C35.3458 82.3771 36.0226 83.0767 36.7231 83.3765L37.3286 83.6431H63.508H89.6874L90.2929 83.3765C90.9934 83.0767 91.6702 82.3771 91.8601 81.7663C92.0739 81.1333 92.062 48.8167 91.8601 48.1726C91.6702 47.5618 90.6847 46.6401 90.0317 46.4624C89.7587 46.3847 88.9394 46.3291 88.2152 46.3291C86.9686 46.3291 86.8736 46.3402 86.6005 46.6068C86.2087 46.9621 86.2087 47.473 86.6005 47.8283C86.8736 48.0949 86.9686 48.106 88.2033 48.106C89.4381 48.106 89.5331 48.1171 89.8062 48.3836L90.103 48.6501V61.71V74.7588H63.508H36.913V61.71V48.6501L37.2098 48.3836C37.4829 48.1171 37.5779 48.106 38.8127 48.106C40.0474 48.106 40.1424 48.0949 40.4155 47.8283C40.8073 47.473 40.8073 46.9621 40.4155 46.6068C40.1424 46.3402 40.0712 46.3291 38.7296 46.3402C37.9578 46.3513 37.1386 46.4069 36.913 46.4735ZM90.103 78.9233C90.103 81.3221 90.103 81.3221 89.8062 81.5886L89.5212 81.8662H63.508H37.4948L37.2098 81.5886C36.913 81.3221 36.913 81.3221 36.913 78.9233V76.5356H63.508H90.103V78.9233Z" fill="white"/>
<path d="M61.1689 78.4459C61.0264 78.5125 60.8483 78.7013 60.7652 78.879C60.5871 79.2899 60.8127 79.8452 61.2164 79.9895C61.6082 80.1228 65.7162 80.1228 66.0011 79.9784C66.2979 79.8341 66.4879 79.2566 66.3573 78.9345C66.1317 78.3682 65.8824 78.3126 63.5672 78.3237C62.3324 78.3237 61.3232 78.3793 61.1689 78.4459Z" fill="white"/>
<path d="M65.7755 53.6252C65.5855 53.7696 64.7544 56.0018 62.6173 61.9876C61.0145 66.4741 59.7085 70.261 59.7085 70.4054C59.7085 71.0384 60.6939 71.4271 61.2401 71.0051C61.43 70.8718 62.2611 68.6397 64.3982 62.6539C66.0011 58.1673 67.3071 54.3804 67.3071 54.236C67.3071 53.603 66.3216 53.2143 65.7755 53.6252Z" fill="white"/>
<path d="M52.5018 59.3779C50.7921 60.7216 49.3911 61.8877 49.3317 62.0432C49.2605 62.2209 49.2605 62.4208 49.3317 62.5984C49.3911 62.7539 50.7684 63.9089 52.5018 65.2637C55.1138 67.2849 55.6362 67.6514 55.9567 67.6514C56.4791 67.6514 56.8591 67.2627 56.8591 66.7407C56.8591 66.352 56.7641 66.2632 54.3421 64.3753C52.9529 63.287 51.8132 62.3652 51.8132 62.3208C51.8132 62.2764 52.858 61.4324 54.1283 60.444C55.3987 59.4556 56.5385 58.545 56.6572 58.4117C56.9541 58.0897 56.9184 57.5899 56.5623 57.2679C55.9686 56.7015 55.8261 56.7792 52.5018 59.3779Z" fill="white"/>
<path d="M70.4535 57.2678C70.133 57.5566 70.0617 58.0563 70.3111 58.345C70.3823 58.445 71.5221 59.3556 72.8281 60.3773C74.1341 61.3879 75.2026 62.2652 75.2026 62.3207C75.2026 62.3763 74.1341 63.2536 72.8281 64.2642C71.5221 65.2859 70.3823 66.1965 70.3111 66.2965C70.0617 66.5852 70.133 67.0849 70.4535 67.3737C71.0353 67.9289 71.1778 67.8623 74.5496 65.2526C76.5205 63.72 77.6722 62.7428 77.7078 62.5873C77.7553 62.4429 77.7553 62.1986 77.7078 62.0653C77.6722 61.8987 76.5086 60.9215 74.5496 59.4C71.1778 56.7792 71.0472 56.7014 70.4535 57.2678Z" fill="white"/>
<path d="M57.468 85.1224C57.3017 85.2446 56.9574 85.6777 56.6962 86.0886C56.4469 86.4995 55.8414 87.2324 55.3546 87.71L54.4879 88.5762H53.4787C52.9207 88.5762 52.2558 88.6317 52.0065 88.7094C51.3535 88.8871 50.6055 89.5201 50.2849 90.1753C50.0356 90.664 50 90.9083 50 92.0521C50 93.2959 50.0119 93.3737 50.2968 93.6291L50.5818 93.9067H63.2975H76.0132L76.2982 93.6291C76.5831 93.3737 76.595 93.2848 76.595 92.1188C76.595 90.5196 76.4644 90.1087 75.7045 89.4091C74.9922 88.7317 74.5054 88.5762 73.1638 88.5762H72.1902L71.5847 88.0431C70.8723 87.4323 70.0768 86.4773 69.7325 85.8554C69.412 85.2557 69.0676 84.9892 68.6165 84.9892C68.2009 84.9892 67.6904 85.4334 67.6904 85.8109C67.6904 86.133 68.2009 87.0214 68.8658 87.8432L69.4595 88.5762H63.2975H57.1355L57.7292 87.8432C58.394 87.0214 58.9046 86.133 58.9046 85.8109C58.9046 85.5111 58.4415 85.0447 58.0735 84.9669C57.8598 84.9225 57.6698 84.9669 57.468 85.1224ZM74.3985 90.6307C74.6478 90.8528 74.6953 91.0082 74.6953 91.5191V92.1299H63.2975H51.8996V91.5191C51.8996 91.0082 51.9471 90.8528 52.1965 90.6307L52.4814 90.353H63.2975H74.1136L74.3985 90.6307Z" fill="white"/>
</svg>
