<svg width="36" height="39" viewBox="0 0 36 39" fill="none" xmlns="http://www.w3.org/2000/svg">
<path d="M0 16.0207C0 7.17272 7.17273 0 16.0207 0V0V22.1307C16.0207 30.9787 8.848 38.1514 0 38.1514V38.1514V16.0207Z" fill="#4A3AFF"/>
<path d="M18.3447 8.70553C18.3447 3.8976 22.2423 0 27.0503 0V0C31.8582 0 35.7558 3.8976 35.7558 8.70553V9.20816C35.7558 14.0161 31.8582 17.9137 27.0503 17.9137V17.9137C22.2423 17.9137 18.3447 14.0161 18.3447 9.20816V8.70553Z" fill="#4CBFFF"/>
<path d="M18.3447 28.9433C18.3447 24.1354 22.2423 20.2378 27.0503 20.2378V20.2378C31.8582 20.2378 35.7558 24.1354 35.7558 28.9433V29.446C35.7558 34.2539 31.8582 38.1515 27.0503 38.1515V38.1515C22.2423 38.1515 18.3447 34.2539 18.3447 29.4459V28.9433Z" fill="#702DFF"/>
</svg>
