<svg width="39" height="39" viewBox="0 0 39 39" fill="none" xmlns="http://www.w3.org/2000/svg">
<path d="M10.2211 33.5184L10.8535 33.8347C13.4888 35.4157 16.4401 36.1535 19.3915 36.1535C28.6672 36.1535 36.2563 28.5644 36.2563 19.2887C36.2563 14.8617 34.4644 10.5401 31.3023 7.37786C28.1401 4.21565 23.9238 2.42383 19.3915 2.42383C10.1158 2.42383 2.52647 10.013 2.63195 19.3942C2.63195 22.5562 3.58059 25.6131 5.16162 28.2481L5.58321 28.8806L3.89686 35.0996L10.2211 33.5184Z" fill="#00E676"/>
<path d="M33.0973 5.69188C29.5135 2.00277 24.5595 0 19.5 0C8.74876 0 0.105472 8.74862 0.210794 19.3945C0.210794 22.7675 1.15944 26.0352 2.74062 28.9865L0 39L10.2243 36.3649C13.0703 37.946 16.2323 38.6839 19.3947 38.6839C30.0406 38.6839 38.6839 29.9351 38.6839 19.2894C38.6839 14.1244 36.6811 9.27568 33.0975 5.69188H33.0973ZM19.5 35.4164C16.6541 35.4164 13.8081 34.6787 11.3838 33.2029L10.7514 32.8867L4.63791 34.4677L6.21894 28.4597L5.79735 27.8272C1.15944 20.3435 3.373 10.4351 10.9622 5.7972C18.5513 1.15944 28.3541 3.373 32.992 10.9622C37.6298 18.5514 35.4162 28.3541 27.8272 32.992C25.4027 34.573 22.4514 35.4162 19.5 35.4162V35.4164ZM28.7757 23.7165L27.6162 23.1894C27.6162 23.1894 25.9299 22.4516 24.8758 21.9245C24.7703 21.9245 24.665 21.819 24.5595 21.819C24.2432 21.819 24.0324 21.9245 23.8216 22.03C23.8216 22.03 23.7163 22.1353 22.2406 23.8218C22.1351 24.0326 21.9243 24.1381 21.7136 24.1381H21.6081C21.5028 24.1381 21.292 24.0326 21.1865 23.9273L20.6594 23.7165C19.5 23.1894 18.446 22.5569 17.6027 21.7137C17.3919 21.5029 17.0756 21.2921 16.8648 21.0813C16.127 20.3435 15.3891 19.5002 14.8622 18.5515L14.7568 18.3407C14.6514 18.2352 14.6514 18.1299 14.546 17.9191C14.546 17.7083 14.546 17.4975 14.6514 17.3921C14.6514 17.3921 15.073 16.865 15.3891 16.5489C15.6001 16.3379 15.7054 16.0218 15.9162 15.811C16.127 15.4948 16.2325 15.0732 16.127 14.7569C16.0217 14.2299 14.7568 11.3839 14.4406 10.7515C14.2297 10.4353 14.0191 10.3299 13.7028 10.2245H12.5434C12.3324 10.2245 12.1218 10.3299 11.9108 10.3299L11.8053 10.4353C11.5946 10.5407 11.3838 10.7515 11.173 10.8569C10.9622 11.0678 10.8567 11.2784 10.6459 11.4894C9.90805 12.438 9.48647 13.5975 9.48647 14.7569C9.48647 15.6001 9.69726 16.4434 10.0135 17.1813L10.119 17.4975C11.0676 19.5002 12.3324 21.2921 14.0191 22.8732L14.4406 23.2947C14.7568 23.611 15.073 23.8218 15.2838 24.1379C17.4974 26.0354 20.0271 27.4056 22.873 28.1434C23.1893 28.2488 23.6108 28.2488 23.9271 28.3542H24.9811C25.5081 28.3542 26.1405 28.1434 26.5623 27.9327C26.8784 27.7219 27.0892 27.7219 27.3 27.5111L27.5109 27.3001C27.7217 27.0893 27.9325 26.984 28.1433 26.7732C28.3541 26.5624 28.5649 26.3516 28.6703 26.1407C28.8811 25.7191 28.9865 25.192 29.0919 24.6651V23.9273C29.0919 23.9273 28.9865 23.8218 28.7757 23.7165V23.7165Z" fill="white"/>
</svg>
