<svg width="128" height="134" viewBox="0 0 128 134" fill="none" xmlns="http://www.w3.org/2000/svg">
<path fill-rule="evenodd" clip-rule="evenodd" d="M69.9791 6.34325C82.1452 5.87618 95.0636 -4.14292 105.618 1.971C116.169 8.08248 116.666 23.3407 119.784 35.193C122.29 44.7171 120.808 54.3821 121.98 64.164C123.341 75.5207 130.26 86.4474 127.248 97.4766C124.046 109.2 116.718 122.005 105.195 125.619C93.3325 129.339 82.3313 114.091 69.9791 115.437C55.1876 117.048 44.7696 136.134 30.0728 133.803C16.2187 131.606 3.69236 118.261 0.716318 104.453C-2.34087 90.2686 15.0542 78.6793 15.0637 64.164C15.0732 49.6646 -4.01297 37.581 0.768891 23.9053C5.27272 11.0248 22.7299 7.98388 35.874 4.64855C47.1028 1.79925 58.408 6.78747 69.9791 6.34325Z" fill="#6D6CE3"/>
<path d="M49.5328 37.5081C48.7867 37.6886 47.6917 38.3264 47.1622 38.904C46.8975 39.1928 46.5004 39.7944 46.2958 40.2396L45.9108 41.0459L45.8747 44.4994L45.8386 47.9649H44.2141C42.6498 47.9649 42.5776 47.977 42.3008 48.2658L42 48.5546V63.8487V79.1428L42.3008 79.4316C42.5776 79.7204 42.6498 79.7324 44.2141 79.7324H45.8386L45.8747 86.5673L45.9108 93.4021L46.356 94.3166C46.8975 95.4116 47.5954 96.0855 48.7145 96.6149L49.5207 97H64.141H78.7613L79.5675 96.6149C80.6866 96.0855 81.3845 95.4116 81.926 94.3166L82.3712 93.4021L82.4073 86.5673L82.4434 79.7324H84.0679C85.6322 79.7324 85.7044 79.7204 85.9812 79.4316L86.282 79.1428V63.8487V48.5546L85.9812 48.2658C85.7044 47.977 85.6322 47.9649 84.0679 47.9649H82.4434L82.4073 44.4994L82.3712 41.0459L81.9861 40.2396C81.4567 39.1206 80.7828 38.4226 79.6878 37.8811L78.7733 37.4359L64.3937 37.4119C55.9585 37.3998 49.8095 37.448 49.5328 37.5081ZM78.5086 39.4455C79.1704 39.638 80.1691 40.6367 80.3617 41.2986C80.4579 41.6355 80.5061 42.8147 80.5061 44.8844V47.9649H64.141H47.7759V44.8844C47.7759 42.8147 47.824 41.6355 47.9203 41.2986C48.1008 40.6849 49.1116 39.65 49.7012 39.4575C50.339 39.2529 77.8347 39.2529 78.5086 39.4455ZM84.3567 52.7782V55.6661H64.141H43.9253V52.7782V49.8902H64.141H84.3567V52.7782ZM84.3567 67.6993V77.8071H64.141H43.9253V67.6993V57.5914H64.141H84.3567V67.6993ZM80.5061 82.6204V85.5083H64.141H47.7759V82.6204V79.7324H64.141H80.5061V82.6204ZM80.5061 90.0328C80.5061 91.7295 80.4579 92.8125 80.3617 93.1374C80.1691 93.7992 79.1704 94.7979 78.5086 94.9905C77.7866 95.195 50.4954 95.195 49.7734 94.9905C49.1116 94.7979 48.1128 93.7992 47.9203 93.1374C47.824 92.8125 47.7759 91.7295 47.7759 90.0328V87.4336H64.141H80.5061V90.0328Z" fill="white"/>
<path d="M59.629 41.5274C59.4364 41.7079 59.3281 41.9606 59.3281 42.1892C59.3281 42.4178 59.4364 42.6705 59.629 42.851L59.9177 43.1519H64.1414H68.365L68.6538 42.851C68.8463 42.6705 68.9546 42.4178 68.9546 42.1892C68.9546 41.9606 68.8463 41.7079 68.6538 41.5274L68.365 41.2266H64.1414H59.9177L59.629 41.5274Z" fill="white"/>
<path d="M71.1807 41.5274C70.9882 41.7079 70.8799 41.9606 70.8799 42.1892C70.8799 42.4178 70.9882 42.6705 71.1807 42.851C71.3612 43.0436 71.6139 43.1519 71.8425 43.1519C72.0712 43.1519 72.3239 43.0436 72.5044 42.851C72.6969 42.6705 72.8052 42.4178 72.8052 42.1892C72.8052 41.9606 72.6969 41.7079 72.5044 41.5274C72.3239 41.3349 72.0712 41.2266 71.8425 41.2266C71.6139 41.2266 71.3612 41.3349 71.1807 41.5274Z" fill="white"/>
<path d="M73.1065 52.1164C72.914 52.2969 72.8057 52.5496 72.8057 52.7782C72.8057 53.0068 72.914 53.2595 73.1065 53.44C73.287 53.6325 73.5397 53.7408 73.7683 53.7408C73.9969 53.7408 74.2496 53.6325 74.4301 53.44C74.6227 53.2595 74.731 53.0068 74.731 52.7782C74.731 52.5496 74.6227 52.2969 74.4301 52.1164C74.2496 51.9238 73.9969 51.8155 73.7683 51.8155C73.5397 51.8155 73.287 51.9238 73.1065 52.1164Z" fill="white"/>
<path d="M76.9561 52.1164C76.7636 52.2969 76.6553 52.5496 76.6553 52.7782C76.6553 53.0068 76.7636 53.2595 76.9561 53.44C77.1366 53.6325 77.3893 53.7408 77.6179 53.7408C77.8466 53.7408 78.0993 53.6325 78.2797 53.44C78.4723 53.2595 78.5806 53.0068 78.5806 52.7782C78.5806 52.5496 78.4723 52.2969 78.2797 52.1164C78.0993 51.9238 77.8466 51.8155 77.6179 51.8155C77.3893 51.8155 77.1366 51.9238 76.9561 52.1164Z" fill="white"/>
<path d="M80.8067 52.1164C80.6142 52.2969 80.5059 52.5496 80.5059 52.7782C80.5059 53.0068 80.6142 53.2595 80.8067 53.44C80.9872 53.6325 81.2399 53.7408 81.4685 53.7408C81.6971 53.7408 81.9498 53.6325 82.1303 53.44C82.3229 53.2595 82.4312 53.0068 82.4312 52.7782C82.4312 52.5496 82.3229 52.2969 82.1303 52.1164C81.9498 51.9238 81.6971 51.8155 81.4685 51.8155C81.2399 51.8155 80.9872 51.9238 80.8067 52.1164Z" fill="white"/>
<path d="M66.451 59.7214C66.1622 59.9741 60.29 73.6437 60.29 74.0529C60.29 74.7387 61.3008 75.1599 61.8303 74.7026C62.1191 74.462 67.9913 60.7923 67.9913 60.3832C67.9913 59.6973 66.9805 59.2761 66.451 59.7214Z" fill="white"/>
<path d="M53.8279 64.1255C51.3732 66.5682 51.1445 66.8329 51.1445 67.218C51.1445 67.591 51.3732 67.8558 53.7437 70.2383C55.2478 71.7425 56.4872 72.8856 56.6557 72.9338C57.3296 73.1022 58.0155 72.4163 57.8229 71.7665C57.7748 71.6101 56.7881 70.5271 55.6209 69.3479L53.491 67.218L55.6209 65.0761C56.7881 63.9089 57.7748 62.8259 57.8229 62.6695C58.0034 62.0678 57.4619 61.4421 56.764 61.4421C56.5835 61.4421 55.681 62.2724 53.8279 64.1255Z" fill="white"/>
<path d="M70.9279 61.5862C70.6391 61.7186 70.3984 62.1638 70.3984 62.5489C70.3984 62.7294 71.1204 63.5356 72.5885 65.0157L74.7785 67.2177L72.5885 69.4198C70.6511 71.3692 70.3984 71.67 70.3984 72.019C70.3984 72.5364 70.8557 72.9937 71.3852 72.9937C71.7341 72.9937 72.059 72.7169 74.4536 70.3103C76.9204 67.8555 77.137 67.6028 77.137 67.2177C77.137 66.8327 76.9204 66.58 74.4536 64.1252C71.6619 61.3335 71.5777 61.2613 70.9279 61.5862Z" fill="white"/>
<path d="M63.1784 88.5527C62.5888 88.7452 61.578 89.7801 61.3975 90.3938C61.0606 91.5249 61.3012 92.4274 62.1556 93.2697C63.3709 94.4971 64.9112 94.4971 66.1265 93.2697C66.7522 92.656 67.029 92.0423 67.029 91.2842C67.029 90.5262 66.7522 89.9125 66.1265 89.2988C65.2842 88.4444 64.2975 88.2038 63.1784 88.5527ZM64.8029 90.6224C65.4045 91.212 64.9834 92.2469 64.1411 92.2469C63.9124 92.2469 63.6597 92.1386 63.4792 91.9461C62.8776 91.3564 63.2987 90.3216 64.1411 90.3216C64.3697 90.3216 64.6224 90.4299 64.8029 90.6224Z" fill="white"/>
<path d="M51.9268 90.6224C51.7343 90.8028 51.626 91.0555 51.626 91.2842C51.626 91.5128 51.7343 91.7655 51.9268 91.946C52.2156 92.2468 52.2397 92.2468 54.5139 92.2468C56.7882 92.2468 56.8123 92.2468 57.1011 91.946C57.2936 91.7655 57.4019 91.5128 57.4019 91.2842C57.4019 91.0555 57.2936 90.8028 57.1011 90.6224C56.8123 90.3215 56.7882 90.3215 54.5139 90.3215C52.2397 90.3215 52.2156 90.3215 51.9268 90.6224Z" fill="white"/>
<path d="M71.1807 90.6224C70.9882 90.8028 70.8799 91.0555 70.8799 91.2842C70.8799 91.5128 70.9882 91.7655 71.1807 91.946C71.4695 92.2468 71.4936 92.2468 73.7678 92.2468C76.0421 92.2468 76.0662 92.2468 76.355 91.946C76.5475 91.7655 76.6558 91.5128 76.6558 91.2842C76.6558 91.0555 76.5475 90.8028 76.355 90.6224C76.0662 90.3215 76.0421 90.3215 73.7678 90.3215C71.4936 90.3215 71.4695 90.3215 71.1807 90.6224Z" fill="white"/>
</svg>
