<svg width="40" height="40" viewBox="0 0 40 40" fill="none" xmlns="http://www.w3.org/2000/svg">
<rect width="40" height="40" rx="8" fill="white"/>
<g clip-path="url(#clip0_2902_968)">
<path d="M8.62566 8.76891C6.5825 10.8912 7.00066 13.1456 7.00066 19.9944C7.00066 25.6819 6.00833 31.3835 11.2018 32.7257C12.8236 33.1428 27.1929 33.1428 28.8125 32.7236C30.9748 32.1657 32.7342 30.4117 32.9747 27.3535C33.0082 26.9267 33.0082 13.0697 32.9736 12.6342C32.7179 9.37666 30.7127 7.49924 28.0704 7.11899C27.4648 7.03124 27.3435 7.00524 24.2365 6.99983C13.2157 7.00524 10.7999 6.51449 8.62566 8.76891V8.76891Z" fill="#6C63FF"/>
<path d="M19.9978 10.4006C16.0642 10.4006 12.3289 10.0507 10.9021 13.7124C10.3128 15.2247 10.3984 17.1888 10.3984 20.0011C10.3984 22.469 10.3193 24.7884 10.9021 26.2888C12.3256 29.9526 16.0913 29.6016 19.9956 29.6016C23.7624 29.6016 27.6461 29.9938 29.0902 26.2888C29.6806 24.7613 29.594 22.8265 29.594 20.0011C29.594 16.2506 29.8009 13.8294 27.982 12.0115C26.1403 10.1699 23.6497 10.4006 19.9935 10.4006H19.9978ZM19.1376 12.1307C27.3428 12.1177 28.3871 11.2055 27.8108 23.8773C27.606 28.359 24.1935 27.8672 19.9989 27.8672C12.3505 27.8672 12.1306 27.6484 12.1306 19.9968C12.1306 12.2564 12.7373 12.135 19.1376 12.1285V12.1307ZM25.122 13.7243C24.486 13.7243 23.9704 14.24 23.9704 14.8759C23.9704 15.5118 24.486 16.0275 25.122 16.0275C25.7579 16.0275 26.2735 15.5118 26.2735 14.8759C26.2735 14.24 25.7579 13.7243 25.122 13.7243V13.7243ZM19.9978 15.0709C17.2754 15.0709 15.0686 17.2787 15.0686 20.0011C15.0686 22.7235 17.2754 24.9303 19.9978 24.9303C22.7202 24.9303 24.9259 22.7235 24.9259 20.0011C24.9259 17.2787 22.7202 15.0709 19.9978 15.0709V15.0709ZM19.9978 16.801C24.2282 16.801 24.2336 23.2013 19.9978 23.2013C15.7685 23.2013 15.762 16.801 19.9978 16.801Z" fill="white"/>
</g>
<defs>
<clipPath id="clip0_2902_968">
<rect width="26" height="26" fill="white" transform="translate(7 7)"/>
</clipPath>
</defs>
</svg>
