<svg width="110" height="40" viewBox="0 0 110 40" fill="none" xmlns="http://www.w3.org/2000/svg">
<path fill-rule="evenodd" clip-rule="evenodd" d="M108.659 19.0323L108.659 19.0324C108.356 20.0962 107.214 24.1058 103.681 24.1058C102.104 24.1058 101.003 23.0198 100.343 21.6962C105.258 20.678 106.908 17.0805 106.908 14.6369C106.908 11.7861 104.708 10.734 102.837 10.734C99.7931 10.734 95.7955 13.3812 95.7955 18.5059C95.7955 18.9811 95.8322 19.4223 95.8689 19.8295C94.8053 19.5241 93.8884 19.015 93.265 18.1326C94.1818 14.3315 94.0351 10.7 92.128 10.7C91.0644 10.7 90.1476 11.9897 90.1476 14.8405C90.1476 15.9605 90.4776 17.2163 91.1011 18.3362C90.6977 20.0671 89.3774 24.2755 87.6536 24.2755C85.6184 24.2755 85.8994 16.4928 86.01 13.4284C86.027 12.9588 86.0399 12.5999 86.0399 12.397C86.0399 11.1412 82.7759 9.85156 82.079 10.4964C81.7856 10.7679 81.7123 12.4648 81.7123 14.6369C81.7123 16.4357 81.859 18.5399 82.2991 20.5083C82.079 21.5604 81.0888 24.3094 79.2917 24.3094C76.9949 24.3094 77.537 17.6492 77.799 14.4318C77.8549 13.7447 77.8981 13.2147 77.8981 12.94C77.8981 11.82 74.7807 10.7679 74.0105 11.4467C73.7171 11.7182 73.497 13.7206 73.497 16.809C73.497 18.0987 73.5704 19.4562 73.7904 20.7459C73.497 22.1034 72.3234 24.3094 70.453 24.3094C67.4583 24.3094 68.7549 13.6748 69.5626 7.05048L69.5728 6.96677C70.0494 6.89891 70.5627 6.83105 71.076 6.7632L71.0765 6.76313C71.1819 6.7523 71.2892 6.74081 71.3973 6.72923C72.6442 6.59572 74.0105 6.44942 74.0105 7.13646C74.0105 8.86733 75.2574 9.41035 76.1743 9.41035C77.2012 9.41035 78.0814 8.6637 78.0814 7.23828C78.0814 5.84679 76.7611 4.52318 74.4506 4.52318C72.9102 4.52318 71.3332 4.69288 69.7928 4.93045C69.8223 4.63035 69.8518 4.34975 69.8792 4.08929C69.9539 3.37771 70.0129 2.8165 70.0129 2.41898C70.0129 0.95962 66.7488 -0.465805 66.0887 0.145091C65.9786 0.246907 65.5385 2.55474 65.1351 5.77891C62.8612 6.18618 60.6241 6.5595 58.3869 6.5595C57.6167 6.5595 57.7267 8.73158 60.3307 8.73158C61.8343 8.73158 63.338 8.42613 64.8784 8.05281C64.6583 10.2928 64.5116 12.7703 64.5116 15.146C64.5116 17.2841 64.6583 19.1508 64.9517 20.7459C64.6583 21.9337 63.7414 24.3434 62.0177 24.3434C59.2716 24.3434 59.9017 17.0376 60.191 13.6834C60.2494 13.0059 60.294 12.4896 60.294 12.2273C60.294 11.4806 57.2866 9.85156 56.6631 10.4285C56.5898 10.4964 56.5164 10.9715 56.5164 10.9715C56.5164 10.9715 56.113 10.7 55.0128 10.7C50.7951 10.7 47.421 15.5193 47.421 19.8974C47.421 20.101 47.421 20.3047 47.4577 20.5083C46.7975 21.9337 45.1471 24.3773 42.1764 24.3773C40.6728 24.3773 39.6092 23.461 38.8757 22.2731C43.4967 21.0513 45.2938 17.3181 45.2938 14.9084C45.2938 12.0915 42.7266 10.7 40.8561 10.7C37.592 10.7 34.0346 13.7206 34.0346 18.8114C34.0346 20.3047 34.328 21.5604 34.8414 22.6464C34.2546 23.4949 33.3744 24.3434 32.1641 24.3434C29.3988 24.3434 30.4272 17.2991 30.8883 14.1407L30.8883 14.1407C30.9899 13.4454 31.0639 12.9384 31.0639 12.7363C31.0639 12.4648 31.0639 11.9218 30.5137 11.5824C30.0204 11.246 27.8356 10.9096 26.1203 10.6455C25.4128 10.5366 24.7852 10.4399 24.389 10.3606V9.61399C24.389 7.57766 23.032 7.13646 22.1151 7.13646C20.6114 7.13646 20.318 8.69764 20.318 9.07097C20.318 9.44429 20.4281 10.7679 21.9317 11.5485C21.9317 15.3157 19.3278 24.2416 12.3595 24.2416C7.07831 24.2416 5.1712 19.2186 5.1712 15.4854C5.1712 9.17278 9.16879 4.31955 11.7361 4.31955C13.3452 4.31955 13.4409 5.76224 13.5369 7.20901C13.6334 8.66398 13.7302 10.1231 15.3669 10.1231C17.6408 10.1231 17.9708 8.08674 17.9708 7.13646C17.9708 5.37165 15.9904 2.0796 11.7361 2.0796C4.98782 2.0796 0 9.68186 0 16.1981C0 22.4767 4.65775 27.4997 11.1859 27.4997C21.2716 27.4997 23.7655 17.5896 24.279 12.0576C24.5133 12.1178 24.8631 12.1909 25.2235 12.2661L25.2235 12.2661C25.8784 12.4029 26.5682 12.547 26.6628 12.6345C26.7798 12.7427 26.6837 13.4988 26.5443 14.5947L26.5443 14.5948L26.5443 14.5949V14.5949C26.3777 15.905 26.1494 17.7007 26.1494 19.4562C26.1494 23.4949 27.5797 26.753 31.0272 26.753C33.191 26.753 34.9148 25.2937 35.8316 24.1737C37.2253 25.8367 39.2424 26.6851 41.2229 26.6851C44.6337 26.6851 46.8709 24.7167 47.9711 23.1555C48.9247 25.5312 50.8685 26.6851 52.6289 26.6851C55.0861 26.6851 56.5531 23.6307 56.6265 23.1555C57.36 25.2937 59.0837 26.753 61.0275 26.753C63.4847 26.753 64.9884 24.6828 65.5752 23.3931C66.4554 25.5652 67.8491 26.753 69.8662 26.753C72.1767 26.753 73.6804 24.8185 74.3772 23.5288C75.1107 25.4294 76.321 26.753 78.2281 26.753C80.7954 26.753 82.4091 24.3094 82.9226 23.0876C83.7661 25.1918 85.0864 26.6851 87.1402 26.6851C89.4141 26.6851 91.3945 23.6646 92.5681 20.2707C93.5217 21.1192 94.7686 21.7301 96.2723 21.8998C97.4092 24.9543 100.087 26.6512 102.911 26.6512C107.825 26.6512 109.732 21.9677 109.952 20.8816C110.246 19.7617 109.109 18.438 108.742 18.7774C108.728 18.7901 108.702 18.8816 108.659 19.0323ZM40.7098 12.1594C42.7636 12.1594 41.5533 19.4223 38.1792 20.6101C37.9225 19.8295 37.8124 19.0829 37.8124 18.5059C37.7758 16.0623 38.8393 12.1594 40.7098 12.1594ZM53.2157 23.6985C49.6215 23.6985 52.1521 12.1933 55.0127 12.1933C56.9199 12.1933 56.6265 23.6985 53.2157 23.6985ZM102.361 12.2273C104.341 12.2273 103.204 19.7277 99.7567 20.2029C99.5733 19.592 99.5 18.9811 99.5 18.5059C99.5 16.0623 100.49 12.2273 102.361 12.2273ZM64.38 35.0839C64.3088 35.1545 64.3088 35.2957 64.38 35.3663L66.9442 38.9322C67.051 39.0734 66.9442 39.2852 66.7661 39.2852H65.4128C65.3416 39.2852 65.2703 39.2499 65.2347 39.1793L63.4541 36.6373C63.3828 36.5314 63.2048 36.5314 63.0979 36.6373L62.172 37.7318C62.172 37.7495 62.1631 37.7759 62.1542 37.8024C62.1453 37.8289 62.1364 37.8554 62.1364 37.873V39.0381C62.1364 39.144 62.0652 39.2499 61.9227 39.2499H60.8543C60.7475 39.2499 60.6406 39.1793 60.6406 39.0381V32.2948C60.6406 32.1889 60.7119 32.0829 60.8543 32.0829H61.9227C62.0295 32.0829 62.1364 32.1536 62.1364 32.2948V35.0486C62.1364 35.2604 62.3857 35.3663 62.5281 35.1898L64.9854 32.1536C65.021 32.1183 65.0923 32.0829 65.1635 32.0829H66.3743C66.5524 32.0829 66.6592 32.2948 66.5524 32.436L64.38 35.0839ZM34.2157 32.083H33.0224C32.9478 32.083 32.8732 32.1183 32.8359 32.1889L30.7104 35.5429C30.5985 35.6488 30.5239 35.6488 30.4493 35.5429L28.3984 32.1889C28.3611 32.1183 28.2865 32.083 28.2119 32.083H27.0559C26.9067 32.083 26.7949 32.1889 26.7949 32.3301V39.0381C26.7949 39.1793 26.9067 39.2853 27.0559 39.2853H28.2119C28.3611 39.2853 28.4729 39.1793 28.4729 39.0381V35.5782C28.4729 35.3664 28.6967 35.2604 28.8458 35.437L30.4493 37.9083C30.5612 38.0496 30.7477 38.0496 30.8222 37.9083L32.463 35.437C32.6122 35.2604 32.8359 35.3664 32.8359 35.5782V39.0381C32.8359 39.1793 32.9478 39.2853 33.097 39.2853H34.2902C34.4394 39.2853 34.5513 39.1793 34.5513 39.0381V32.3301C34.4767 32.1889 34.3648 32.083 34.2157 32.083ZM42.5887 32.083C42.6973 32.083 42.7697 32.1539 42.8059 32.2249L45.8107 38.9659C45.8831 39.1079 45.7745 39.2852 45.5934 39.2852H44.3988C44.2902 39.2852 44.2178 39.2143 44.1816 39.1433L43.7109 38.008C43.6747 37.937 43.6023 37.8661 43.4937 37.8661H40.4165C40.3079 37.8661 40.2355 37.937 40.1993 38.008L39.7649 39.1433C39.7287 39.2143 39.6563 39.2852 39.5477 39.2852H38.3168C38.1358 39.2852 38.0272 39.1079 38.0996 38.9659L41.1406 32.2249C41.1768 32.1539 41.2492 32.083 41.3578 32.083H42.5887ZM41.2133 36.4824H42.77C42.9148 36.4824 43.0596 36.305 43.0234 36.1631L42.227 34.2117C42.1546 34.0343 41.8649 34.0343 41.7925 34.2117L40.9961 36.1631C40.9237 36.305 41.0323 36.4824 41.2133 36.4824ZM76.5971 37.8306H73.0842C72.9378 37.8306 72.828 37.7242 72.828 37.5822V36.5179C72.828 36.3759 72.9378 36.2695 73.0842 36.2695H75.4262C75.5725 36.2695 75.6823 36.1631 75.6823 36.0212V35.2406C75.6823 35.0987 75.5725 34.9923 75.4262 34.9923H73.0842C72.9378 34.9923 72.828 34.8858 72.828 34.7439V33.715C72.828 33.5731 72.9378 33.4666 73.0842 33.4666H76.341C76.4874 33.4666 76.5971 33.3602 76.5971 33.2183V32.3313C76.5971 32.1894 76.4874 32.083 76.341 32.083H71.4741C71.3277 32.083 71.2179 32.1894 71.2179 32.3313V39.0369C71.2179 39.1788 71.3277 39.2853 71.4741 39.2853H76.5971C76.7435 39.2853 76.8533 39.1788 76.8533 39.0369V38.1499C76.8899 37.937 76.7435 37.8306 76.5971 37.8306ZM80.6039 32.083H86.5609C86.6706 32.083 86.7802 32.1807 86.7071 32.2784V33.1254C86.7071 33.2231 86.634 33.3208 86.4878 33.3208H84.5509C84.4412 33.3208 84.3316 33.3859 84.3316 33.5162V38.435C84.3316 38.5328 84.2585 38.6305 84.1123 38.6305H82.9794C82.8698 38.6305 82.7601 38.5653 82.7601 38.435V33.5162C82.7601 33.4185 82.687 33.3208 82.5408 33.3208H80.6039C80.4943 33.3208 80.3846 33.2556 80.3846 33.1254V32.2784C80.3846 32.1807 80.4577 32.083 80.6039 32.083ZM52.5019 32.0829C54.5216 32.0829 55.7055 33.2127 55.7055 34.7662C55.7055 35.7194 55.2876 36.3549 54.7305 36.8139C54.6608 36.8845 54.626 36.9904 54.6608 37.0963L55.601 38.9675C55.6707 39.1087 55.5662 39.2852 55.3921 39.2852H54.1733C54.0689 39.2852 53.9992 39.2146 53.9644 39.144L53.1635 37.52C53.107 37.4052 53.0504 37.407 52.9005 37.4117C52.8658 37.4128 52.8262 37.4141 52.7805 37.4141H52.6412H51.8055C51.5966 37.4141 51.5618 37.4494 51.5618 37.6259V39.0381C51.5618 39.144 51.4921 39.2499 51.3528 39.2499H50.2734C50.1689 39.2499 50.0645 39.1793 50.0645 39.0381V32.3301C50.0645 32.2242 50.1341 32.1183 50.2734 32.1183C51.0394 32.0829 51.7707 32.0829 52.5019 32.0829ZM52.3278 36.045L52.3281 36.045C52.4209 36.0411 52.5136 36.0371 52.6064 36.0371C53.6859 35.9665 54.1733 35.437 54.1733 34.7662C54.1733 33.9541 53.4769 33.5305 52.5716 33.4952C52.2582 33.4599 52.0144 33.4599 51.7707 33.4599C51.6662 33.4599 51.5618 33.5305 51.5618 33.6717V35.8253C51.5618 35.9312 51.6314 36.0371 51.7707 36.0371C51.9564 36.0607 52.1421 36.0528 52.3278 36.045Z" fill="#6D6CE3"/>
</svg>
