<svg width="109" height="34" viewBox="0 0 109 34" fill="none" xmlns="http://www.w3.org/2000/svg">
<path fill-rule="evenodd" clip-rule="evenodd" d="M14.0572 11.866H26.8107C26.8107 11.866 27.0374 12.7211 27.0374 14.2177C27.0374 21.3264 21.5959 26.0833 14.1706 26.0833C5.72491 26.0833 0 19.616 0 12.9884C0 6.2004 6.065 -0.0531086 13.9438 0.000340157C20.1222 0.000340157 23.5231 3.52796 23.5231 3.52796L20.9158 6.0935C20.9158 6.0935 18.4217 3.52796 14.1139 3.52796C8.55902 3.52796 4.13781 7.69696 4.13781 13.0953C4.13781 18.6005 8.78575 22.5557 14.1139 22.5557C18.2517 22.5557 22.6729 20.3643 23.1264 15.3936H14.0572V11.866ZM37.1836 9.24698C31.9688 9.24698 28.2278 13.0953 28.2278 17.585C28.2278 22.1816 31.8554 26.0833 37.2969 26.0833C42.2283 26.0833 46.196 22.6092 46.196 17.6919C46.1394 12.1332 41.4914 9.24698 37.1836 9.24698ZM37.2402 12.6143C39.791 12.6143 42.2283 14.5919 42.2283 17.6919C42.2283 20.7919 39.8476 22.7695 37.2402 22.7695C34.4061 22.7695 32.1955 20.6316 32.1955 17.6384C32.1388 14.7522 34.3495 12.6143 37.2402 12.6143ZM47.7265 17.585C47.7265 13.0953 51.4675 9.24698 56.6823 9.24698C60.9901 9.24698 65.6381 12.1332 65.6947 17.6919C65.6947 22.6092 61.727 26.0833 56.7956 26.0833C51.3541 26.0833 47.7265 22.1816 47.7265 17.585ZM61.727 17.6919C61.727 14.5919 59.2897 12.6143 56.739 12.6143C53.8482 12.6143 51.6375 14.7522 51.6942 17.6384C51.6942 20.6316 53.9048 22.7695 56.739 22.7695C59.3463 22.7695 61.727 20.7919 61.727 17.6919ZM75.7842 9.30043C70.9662 9.30043 67.2252 13.2556 67.2252 17.6919C67.2252 22.7161 71.5897 26.1368 75.6708 26.1368C78.2215 26.1368 79.5252 25.2282 80.6022 24.1057V25.7627C80.6022 28.6489 78.7317 30.4127 75.8976 30.4127C73.1768 30.4127 71.8164 28.4885 71.3063 27.4196L67.8487 28.7558C69.039 31.161 71.4763 33.6731 75.8409 33.6731C80.6022 33.6731 84.2298 30.8403 84.2298 24.9075V9.78147H80.4888V11.2246C79.4685 10.0487 77.8814 9.30043 75.7842 9.30043ZM76.1243 12.6143C78.4483 12.6143 80.8856 14.5384 80.8856 17.7453C80.8856 21.0592 78.5049 22.823 76.0676 22.823C73.5169 22.823 71.1362 20.8454 71.1362 17.7988C71.1929 14.485 73.6303 12.6143 76.1243 12.6143ZM92.6755 17.6384C92.6755 12.6143 96.4732 9.24698 101.008 9.24698C104.522 9.24698 107.186 11.4918 108.376 14.0574L109 15.447L97.04 20.1505C97.7769 21.4333 98.9106 22.7161 101.405 22.7161C103.615 22.7161 104.976 21.5936 105.769 20.4178L108.887 22.3954C107.526 24.1057 105.146 26.0833 101.405 26.0833C96.9267 26.0833 92.6755 22.9299 92.6755 17.6384ZM104.465 14.3246C103.899 13.3091 102.765 12.5074 101.121 12.5074C98.5705 12.5074 96.0764 15.0194 96.5299 17.4781L104.465 14.3246ZM90.9184 25.6023H87.0073V0.802072H90.9184V25.6023Z" fill="#6D6CE3"/>
</svg>
