<svg width="119" height="34" viewBox="0 0 119 34" fill="none" xmlns="http://www.w3.org/2000/svg">
<path fill-rule="evenodd" clip-rule="evenodd" d="M17.4839 16.1189C17.3939 15.997 17.3028 15.8793 17.2126 15.7628C16.6492 15.035 16.1208 14.3523 16.1208 12.9724V7.61784C16.1208 7.42757 16.1221 7.23886 16.1233 7.05184V7.05176C16.1369 5.01423 16.1491 3.1775 14.5206 1.71125C13.0983 0.441614 10.7869 0 9.00895 0C5.51229 0 1.60078 1.21444 0.77106 5.24417C0.711795 5.68578 1.00812 5.90659 1.30445 5.96179L4.86037 6.293C5.21597 6.293 5.45303 5.96179 5.51229 5.68578C5.80862 4.30574 7.05319 3.64332 8.47556 3.64332C9.24601 3.64332 10.0757 3.91932 10.5499 4.52654C11.0021 5.13496 10.9857 5.90208 10.9702 6.62608V6.6261C10.9675 6.75605 10.9647 6.88462 10.9647 7.01062V7.45224C10.6726 7.48247 10.3682 7.51167 10.0554 7.54168L10.0553 7.54169C8.08378 7.73083 5.77784 7.95205 4.08992 8.66668C1.77857 9.60511 0.119141 11.482 0.119141 14.2973C0.119141 17.8302 2.54902 19.6518 5.63082 19.6518C8.2385 19.6518 9.66087 19.0998 11.6759 17.1677C11.7593 17.2807 11.8359 17.3864 11.9086 17.4869C12.4049 18.1721 12.724 18.6126 13.8095 19.431C14.1058 19.5414 14.4614 19.5414 14.6984 19.3758C15.4096 18.7686 16.7727 17.6646 17.4839 17.1125C17.7802 16.8365 17.721 16.4501 17.4839 16.1189ZM10.2535 14.6285C9.66087 15.5669 8.77189 16.1741 7.70511 16.1741C6.28274 16.1741 5.45303 15.1805 5.45303 13.69C5.45303 10.7643 8.2385 10.2675 10.9054 10.2675V10.9851L10.9075 11.0316C10.966 12.3359 11.0149 13.4283 10.2535 14.6285ZM58.1788 7.59689L58.1789 7.59688C58.4917 7.56687 58.7961 7.53767 59.0882 7.50744L59.2068 7.12102C59.2068 7.04645 59.2072 6.97099 59.2077 6.89487V6.8947C59.2126 6.12564 59.2179 5.28989 58.7326 4.63694C58.2585 4.02973 57.4288 3.75372 56.6583 3.75372C55.236 3.75372 53.9914 4.41614 53.6951 5.79618C53.6358 6.07219 53.3987 6.4034 53.0432 6.4034L49.4872 6.07219C49.1909 6.01699 48.8946 5.79618 48.9538 5.35457C49.7836 1.32484 53.6951 0.110401 57.1917 0.110401C58.9697 0.110401 61.281 0.552015 62.7034 1.82166C64.3319 3.2879 64.3196 5.12463 64.3061 7.16216L64.3061 7.16393C64.3048 7.3504 64.3036 7.53854 64.3036 7.72824V13.0828C64.3036 14.4627 64.832 15.1454 65.3954 15.8732L65.3956 15.8734L65.3958 15.8738C65.4859 15.9901 65.5769 16.1076 65.6667 16.2293C65.9037 16.5053 65.963 16.8917 65.6667 17.1125C64.9555 17.6646 63.5924 18.7686 62.8812 19.3758C62.6441 19.5414 62.2886 19.5414 61.9922 19.431C60.9068 18.6126 60.5877 18.172 60.0914 17.4869C60.0186 17.3864 59.942 17.2807 59.8587 17.1677C57.8436 19.0998 56.4213 19.6518 53.8136 19.6518C50.7318 19.6518 48.3019 17.8302 48.3019 14.2973C48.3019 11.5372 49.9021 9.6603 52.2134 8.72187C53.9014 8.00725 56.2073 7.78603 58.1788 7.59689ZM55.8879 16.1741C56.8954 16.1741 57.8437 15.5669 58.4363 14.6285C59.0961 13.5017 59.0928 12.47 59.0888 11.2688C59.0885 11.1753 59.0882 11.0808 59.0882 10.9851V10.2675C56.4213 10.2675 53.6358 10.7643 53.6358 13.69C53.6358 15.1805 54.4655 16.1741 55.8879 16.1741ZM24.7147 19.3758H21.0403C20.6847 19.3206 20.3884 19.0998 20.3291 18.7686V1.15922C20.3291 0.828014 20.6254 0.552005 21.0403 0.552005H24.4777C24.8333 0.607207 25.1296 0.828014 25.1296 1.15922V3.4777H25.1889C26.1371 1.26963 27.7965 0.220795 30.0486 0.220795C32.3007 0.220795 33.7823 1.26963 34.7899 3.4777C35.6788 1.26963 37.6939 0.220795 39.8867 0.220795C41.4276 0.220795 43.1463 0.828014 44.1538 2.15286C45.1716 3.43264 45.1406 5.20081 45.1116 6.86328V6.86337V6.86346V6.86355V6.86364C45.1068 7.13718 45.102 7.40786 45.102 7.67303V18.7686C45.102 19.0998 44.8057 19.3758 44.3909 19.3758H40.7164C40.3608 19.3758 40.0645 19.0998 40.0645 18.7686V9.43949C40.0645 9.30394 40.0663 9.13613 40.0684 8.94767C40.078 8.06162 40.0926 6.71914 39.946 6.12738C39.7089 4.96815 38.8792 4.63694 37.8124 4.63694C36.9234 4.63694 35.9752 5.18895 35.6196 6.07218C35.249 6.86107 35.2567 8.13438 35.2626 9.10542C35.2633 9.22155 35.264 9.33335 35.264 9.43949V18.7686C35.264 19.0998 34.9677 19.3758 34.5528 19.3758H30.8783C30.5228 19.3758 30.2264 19.0998 30.2264 18.7686V9.43949C30.2264 9.23192 30.2303 9.01472 30.2343 8.79216V8.79208V8.792V8.79191V8.79184C30.2684 6.88364 30.3095 4.58173 27.9743 4.58173C25.4149 4.58173 25.4209 7.17459 25.4255 9.18891V9.1895V9.19007C25.4257 9.2743 25.4259 9.35752 25.4259 9.43949V18.7686C25.4259 19.0998 25.1296 19.3758 24.7147 19.3758ZM81.9054 14.6285C79.7719 13.5244 77.342 13.1932 75.0306 13.2484L81.3128 4.91295C81.9054 4.14013 82.2017 3.69851 82.2017 3.3121V1.15923C82.2017 0.772822 81.9054 0.552015 81.4905 0.552015H69.4004C69.0448 0.552015 68.7485 0.828024 68.7485 1.15923V3.64331C68.7485 4.02973 69.0448 4.25053 69.4597 4.25053H75.7418L68.5114 13.9108C68.0966 14.5181 68.0966 15.2357 68.0966 15.6221V18.1614C68.0966 18.5478 68.5114 18.9342 68.9263 18.7134C73.0156 16.6709 77.9346 16.8917 81.6683 18.7134C82.1425 18.9342 82.5573 18.4926 82.5573 18.1614V15.4565C82.4981 15.2357 82.3795 14.8493 81.9054 14.6285ZM68.5711 22.7983C67.86 22.8535 67.8007 22.3015 68.3933 21.9151C72.3049 19.3206 78.8241 20.0934 79.5352 21.0319C80.3057 21.8599 79.2982 27.9321 75.6237 30.8026C75.0903 31.2442 74.5569 31.0234 74.794 30.4162L74.8366 30.317C75.6865 28.3389 77.5053 24.1056 76.6312 23.0743C75.7771 22.0666 71.1476 22.5367 68.8412 22.771L68.5711 22.7983ZM48.9534 29.1465C56.5986 29.1465 65.0143 27.6561 72.7188 24.62C73.9041 24.1232 74.8523 25.2824 73.667 26.1656C66.7922 30.8578 56.7764 33.3971 48.1829 33.3971C36.152 33.3971 25.3065 29.2569 17.0686 22.3567C16.4166 21.8047 17.0093 21.0319 17.7797 21.4735C26.6696 26.276 37.6337 29.1465 48.9534 29.1465ZM84.335 9.9363C84.335 4.47133 87.239 0.220795 92.5729 0.220795C98.0253 0.220795 100.929 4.58173 100.989 10.1019C100.989 15.4565 97.7289 19.707 92.5729 19.707C87.239 19.707 84.335 15.3461 84.335 9.9363ZM89.7276 9.51102C89.7264 11.7115 89.7242 16.1189 92.5724 16.1189C95.4171 16.1189 95.5356 12.4204 95.5949 10.1571C95.5949 8.72186 95.5356 6.9002 95.0615 5.52015C94.6467 4.30571 93.8169 3.8089 92.6316 3.8089C89.9054 3.8089 89.7276 7.23141 89.7276 9.38428L89.7276 9.51102ZM108.575 3.75372C109.582 1.38004 111.005 0.220804 113.553 0.220804C115.153 0.220804 116.753 0.772822 117.88 2.37367C118.828 3.75372 118.828 6.12739 118.828 7.83865V18.879C118.768 19.2102 118.472 19.431 118.117 19.431H114.442C114.087 19.431 113.849 19.155 113.79 18.879V9.32909C113.79 9.18104 113.792 9.02781 113.793 8.87105C113.81 6.9821 113.832 4.58174 111.479 4.58174C110.59 4.58174 109.76 5.13376 109.345 5.96179C108.812 7.01062 108.753 8.11466 108.753 9.27389V18.7134C108.753 19.0446 108.456 19.3206 108.041 19.3206H104.367C104.011 19.3206 103.715 19.0446 103.715 18.7134V1.15923C103.774 0.883226 104.071 0.607217 104.426 0.607217H107.804C108.101 0.607217 108.397 0.828024 108.456 1.10403V3.75372H108.575Z" fill="#6D6CE3"/>
</svg>
