<svg width="126" height="34" viewBox="0 0 126 34" fill="none" xmlns="http://www.w3.org/2000/svg">
<path fill-rule="evenodd" clip-rule="evenodd" d="M26.7024 6.19208L26.7028 6.19208C26.829 6.19208 27.0184 6.25105 27.0184 6.42797C27.0815 6.60489 30.8691 30.6655 30.8691 30.6655L19.9482 32.8475L19.9519 32.7782L0 29.3091C0 29.3091 2.52505 10.674 2.6513 10.0842C2.77469 9.21972 2.83778 9.2001 3.72447 8.92442L3.78758 8.90479C3.91383 8.90479 5.17635 8.55095 6.94389 8.02021C7.63828 5.30749 9.78457 0 14.3297 0C14.8978 0 15.5922 0.353833 16.1603 1.00253H16.2866C18.2435 1.00253 19.3166 2.5358 19.9479 4.24599C20.5792 4.06908 21.021 3.95113 21.021 3.95113C21.0412 3.95113 21.0693 3.94963 21.1032 3.94783C21.1968 3.94285 21.3342 3.93553 21.4667 3.95116C21.5918 3.9522 21.7163 4.01064 21.7789 4.06909L23.8621 6.01516C23.8621 6.01516 26.47 6.18514 26.6922 6.19188L26.7024 6.19207L26.7024 6.19208ZM18.8747 4.59982C18.5532 4.71249 18.206 4.80123 17.8332 4.89652C17.6206 4.95087 17.3996 5.00735 17.1703 5.0716V4.71777C17.1703 3.65627 16.981 2.83066 16.7285 2.18197C17.8016 2.24094 18.496 3.36141 18.8747 4.59982ZM16.0344 5.24851C16.0344 4.01009 15.8451 3.06654 15.5926 2.41785C14.4563 2.83065 13.1938 4.01009 12.5625 6.42795C13.7619 6.07412 14.9613 5.72028 16.0344 5.42542V5.24851ZM14.2037 1.2384C14.3931 1.2384 14.5825 1.29738 14.7719 1.41532C13.32 2.06401 11.7418 3.65626 11.1106 6.89973C10.3716 7.12985 9.63255 7.32405 8.92356 7.51037L8.92345 7.5104L8.92279 7.51057L8.92208 7.51076C8.72314 7.56304 8.52656 7.6147 8.33301 7.66636C9.15365 5.18953 10.9843 1.2384 14.2037 1.2384ZM16.35 11.7944L15.0243 15.5097C15.0243 15.5097 13.8249 14.9199 12.4361 14.9199C10.353 14.9199 10.2267 16.1584 10.2267 16.4532C10.2267 17.1319 10.9723 17.6434 11.8716 18.2604C13.2387 19.1983 14.9612 20.38 14.9612 22.7632C14.9612 25.8888 12.8149 27.8938 9.9742 27.8938C6.56539 27.8938 4.79785 25.8888 4.79785 25.8888L5.68162 23.0581C5.68162 23.0581 7.51228 24.5324 9.02731 24.5324C10.0373 24.5324 10.4161 23.8247 10.4161 23.235C10.4161 22.251 9.66143 21.6877 8.81488 21.0558C7.73354 20.2487 6.50226 19.3296 6.50226 17.2788C6.50226 14.2123 8.83793 11.2637 13.6355 11.2637C15.4662 11.2637 16.35 11.7944 16.35 11.7944ZM108.261 13.1508H111.228L110.66 16.0404H107.693L105.421 27.1862H101.128L103.401 16.0994H101.381L102.012 13.0918H104.032L104.158 12.4431C104.474 10.7919 105.168 9.14069 106.62 7.96125C107.756 7.01769 109.271 6.60489 110.786 6.60489C112.364 6.60489 113.122 6.95872 113.122 6.95872L112.301 10.0842C112.301 10.0842 111.67 9.90733 110.913 9.90733C109.524 9.90733 108.64 11.1457 108.388 12.5021L108.261 13.1508ZM58.8331 12.8559C56.9393 12.8559 55.4874 13.6815 54.288 14.9789H54.2249L55.8661 6.89975H51.5736L47.4072 27.3041H51.6998L53.1517 20.3454C53.7199 17.6916 55.1718 16.0994 56.4974 16.0994C57.4443 16.0994 57.8231 16.6891 57.8231 17.5737C57.8231 18.1044 57.7599 18.8121 57.6337 19.3429L55.9924 27.3041H60.3481L62.0525 19.048C62.2419 18.1634 62.3681 17.1609 62.3681 16.4532C62.305 14.2123 61.0425 12.8559 58.8331 12.8559ZM43.5569 18.7531C42.4837 18.2224 41.9156 17.7506 41.9156 17.1019C41.9156 16.2763 42.6731 15.7456 43.9356 15.7456C45.3244 15.7456 46.5869 16.2763 46.5869 16.2763L47.597 13.4457C47.597 13.4457 46.7132 12.797 43.9988 12.797C40.2743 12.797 37.6861 14.802 37.6861 17.5737C37.6861 19.1659 38.8855 20.4044 40.5268 21.23C41.8525 21.9376 42.2943 22.4094 42.2943 23.1171C42.2943 23.8837 41.6631 24.4734 40.4006 24.4734C38.5699 24.4734 36.9286 23.5889 36.9286 23.5889L35.8555 26.4195C35.8555 26.4195 37.4336 27.422 40.0849 27.422C43.9356 27.422 46.6501 25.6529 46.6501 22.4684C46.5869 20.8761 45.1982 19.6967 43.5569 18.7531ZM63.4416 21.9966C63.4416 17.2199 66.8505 12.8559 71.9637 12.8559C75.9406 12.8559 77.7713 15.5097 77.7713 18.4583C77.7713 23.353 74.3625 27.599 69.3124 27.599C65.4617 27.599 63.4416 25.1221 63.4416 21.9966ZM69.88 24.4734C68.4281 24.4734 67.7969 23.294 67.7969 21.8786C67.7969 19.5787 69.0594 15.8635 71.3951 15.8635C72.9101 15.8635 73.4151 17.1019 73.4151 18.2814C73.352 20.6992 72.0895 24.4734 69.88 24.4734ZM84.1475 15.2148C84.1475 15.2148 85.7888 12.8559 88.6926 12.8559C91.7858 12.8559 93.0483 15.2148 93.0483 17.9275C93.0483 22.8222 89.7657 27.599 84.7788 27.599C83.1375 27.599 82.2537 27.0682 82.2537 27.0682H82.1906L80.9912 32.9654H76.7617L79.6655 18.3993C80.0443 16.7481 80.3599 14.5661 80.5493 13.0918H84.3369L84.0844 15.2148H84.1475ZM84.5889 24.4734C83.4527 24.4734 82.8214 23.8837 82.8214 23.8837L83.5158 20.1685C84.0208 17.6916 85.4096 16.0404 86.8615 16.0404C88.1871 16.0404 88.5659 17.1609 88.5659 18.2224C88.629 20.8761 86.9877 24.4734 84.5889 24.4734ZM96.7092 9.37658C96.7092 8.07919 97.7823 7.07667 99.1711 7.07667C100.434 7.07667 101.317 7.96125 101.317 9.08172C101.254 10.556 100.118 11.3816 98.7923 11.3816H98.7292C97.5298 11.3816 96.7092 10.556 96.7092 9.37658ZM93.1738 27.1861H97.4664L100.37 13.0328H96.0776L93.1738 27.1861ZM121.455 13.1508C121.455 13.1508 118.803 19.4608 117.604 22.8812H117.541C117.478 21.7607 116.468 13.1508 116.468 13.1508H111.986L114.574 26.1247C114.637 26.4195 114.574 26.5964 114.511 26.7733C114.006 27.6579 113.185 28.5425 112.175 29.1912C111.354 29.722 110.471 30.0758 109.776 30.3117L110.976 33.6731C111.859 33.4962 113.627 32.8475 115.142 31.4911C117.099 29.7809 118.866 27.1272 120.76 23.5889L126 13.1508H121.455Z" fill="#6D6CE3"/>
</svg>
