<svg width="116" height="34" viewBox="0 0 116 34" fill="none" xmlns="http://www.w3.org/2000/svg">
<path fill-rule="evenodd" clip-rule="evenodd" d="M61.162 8.44534C61.162 9.63635 60.1153 10.6649 58.7778 10.6649C57.4403 10.6649 56.3936 9.69048 56.3936 8.44534C56.3936 7.20019 57.3821 6.22573 58.7778 6.22573C60.1734 6.334 61.162 7.30846 61.162 8.44534ZM51.4503 12.8846C51.4503 13.1011 51.4503 13.4259 51.4503 13.4259C51.4503 13.4259 50.3454 12.0725 47.9612 12.0725C44.0069 12.0725 40.9248 14.8876 40.9248 18.7313C40.9248 22.575 43.9487 25.3902 47.9612 25.3902C50.4036 25.3902 51.4503 23.9826 51.4503 23.9826V24.5781C51.4503 24.8488 51.6829 25.0653 51.9737 25.0653H54.8812V12.3973C54.8812 12.3973 52.2063 12.3973 51.9737 12.3973C51.6829 12.3973 51.4503 12.668 51.4503 12.8846ZM51.4507 21.0051C50.9273 21.763 49.8224 22.4126 48.5431 22.4126C46.217 22.4126 44.4724 21.0592 44.4724 18.7855C44.4724 16.5117 46.2751 15.1583 48.5431 15.1583C49.8224 15.1583 50.9854 15.8079 51.4507 16.5659V21.0051ZM57.0918 12.3973H60.5809V25.0653H57.0918V12.3973ZM109.021 12.0725C106.637 12.0725 105.532 13.4259 105.532 13.4259V6.334H102.043V25.1195C102.043 25.1195 104.718 25.1195 104.95 25.1195C105.241 25.1195 105.474 24.9029 105.474 24.6322V24.0367V24.0367C105.474 24.0367 106.579 25.4443 108.963 25.4443C112.917 25.4443 115.999 22.6292 115.999 18.7855C116.057 14.8876 112.975 12.0725 109.021 12.0725ZM108.44 22.3585C107.102 22.3585 106.056 21.7088 105.532 20.9509V16.4034C106.056 15.7538 107.219 14.9959 108.44 14.9959C110.766 14.9959 112.51 16.3493 112.51 18.623C112.51 20.8968 110.766 22.3585 108.44 22.3585ZM100.24 17.5945V25.1736H96.7509V17.9734C96.7509 15.8621 96.0531 15.05 94.0759 15.05C93.0292 15.05 91.9243 15.5373 91.2265 16.2952V25.1195H87.7374V12.3973H90.4705C90.7613 12.3973 90.9939 12.6139 90.9939 12.8846V13.4259C91.9825 12.4515 93.3781 12.0725 94.7156 12.0725C96.2276 12.0725 97.5069 12.4515 98.4955 13.2635C99.7748 14.238 100.24 15.429 100.24 17.5945ZM79.3054 12.0725C76.9212 12.0725 75.8163 13.4259 75.8163 13.4259V6.334H72.3272V25.1195C72.3272 25.1195 75.0021 25.1195 75.2348 25.1195C75.5255 25.1195 75.7581 24.9029 75.7581 24.6322V24.0367V24.0367C75.7581 24.0367 76.863 25.4443 79.2472 25.4443C83.2016 25.4443 86.2836 22.6292 86.2836 18.7855C86.3418 14.8876 83.2597 12.0725 79.3054 12.0725ZM78.7239 22.3585C77.3864 22.3585 76.3396 21.7088 75.8163 20.9509V16.4034C76.3396 15.7538 77.5027 14.9959 78.7239 14.9959C81.0499 14.9959 82.7945 16.3493 82.7945 18.623C82.7945 20.8968 81.0499 22.3585 78.7239 22.3585ZM69.3033 12.0725C70.35 12.0725 70.8734 12.2349 70.8734 12.2349V15.2124C70.8734 15.2124 67.9658 14.2921 66.1631 16.241V25.1195H62.674V12.3973C62.674 12.3973 65.3489 12.3973 65.5815 12.3973C65.8723 12.3973 66.1049 12.6139 66.1049 12.8846V13.4259C66.8027 12.7221 68.2565 12.0725 69.3033 12.0725ZM33.191 23.9826C33.0165 23.6036 32.8421 23.1164 32.6676 22.7916C32.3769 22.1961 32.0861 21.6006 31.8535 21.0592L31.7953 21.0051C29.2948 15.9703 26.6198 10.8274 23.7704 5.7385L23.6541 5.52195C23.3633 5.03472 23.0726 4.49335 22.7818 3.95198C22.4329 3.35648 22.084 2.70684 21.5025 2.11133C20.3394 0.757915 18.653 0 16.9085 0C15.1058 0 13.4775 0.757915 12.2563 2.00306C11.6748 2.6527 11.2677 3.24821 10.9188 3.89785C10.6281 4.43921 10.3373 4.98058 10.0465 5.46781L9.93024 5.68436C7.13895 10.7191 4.40582 15.8621 1.90529 20.9509L1.84714 21.0051C1.61453 21.5464 1.32377 22.1419 1.03301 22.7374C0.858556 23.1164 0.684101 23.4954 0.509645 23.9285C0.0444307 25.1736 -0.130025 26.3646 0.102583 27.5556C0.509645 30.1 2.31235 32.2114 4.81288 33.1317C5.74331 33.5107 6.73189 33.6731 7.72047 33.6731C8.01123 33.6731 8.36014 33.6189 8.6509 33.6189C9.87209 33.5107 11.0933 33.1317 12.2563 32.4821C13.7683 31.7241 15.1639 30.5873 16.734 28.9632C18.3041 30.5873 19.7579 31.67 21.2117 32.4821C22.4329 33.1317 23.6541 33.5107 24.8171 33.6189C25.1079 33.6731 25.4568 33.6731 25.7475 33.6731C26.7361 33.6731 27.7829 33.5107 28.6551 33.1317C31.2138 32.2114 32.9584 30.0459 33.3654 27.5556C33.7725 26.3646 33.6562 25.2277 33.191 23.9826ZM16.8503 25.715C14.8731 23.4412 13.652 21.2758 13.1867 19.4351C13.0123 18.6772 12.9541 17.9734 13.0704 17.3779C13.1286 16.8365 13.3612 16.3493 13.652 15.9703C14.3498 15.05 15.5128 14.5087 16.8503 14.5087C18.1878 14.5087 19.409 15.05 20.0487 15.9703C20.3394 16.3493 20.572 16.8365 20.6302 17.3779C20.7465 17.9734 20.6883 18.6772 20.5139 19.4351C20.0487 21.2216 18.7693 23.3871 16.8503 25.715ZM31.2723 27.2849C31.0397 29.0173 29.7603 30.5331 27.9576 31.2369C27.0854 31.5617 26.1549 31.67 25.2245 31.5617C24.2941 31.4535 23.4218 31.1828 22.4914 30.6955C21.212 30.0459 19.8745 28.9632 18.3626 27.4473C20.7468 24.7405 22.2006 22.1961 22.724 19.9765C22.9566 18.9479 23.0147 17.9734 22.8984 17.1072C22.7821 16.241 22.4332 15.4831 21.9098 14.8335C20.805 13.3176 18.886 12.4515 16.7925 12.4515C14.699 12.4515 12.78 13.3718 11.6751 14.8335C11.1518 15.4831 10.861 16.2952 10.6865 17.1072C10.5702 17.9734 10.5702 18.9479 10.861 19.9765C11.3844 22.1961 12.8963 24.7405 15.2224 27.4473C13.7104 29.0173 12.3729 30.0459 11.0936 30.6955C10.1632 31.1828 9.23275 31.4535 8.36047 31.5617C7.37189 31.67 6.44146 31.5076 5.62734 31.2369C3.82463 30.5873 2.60344 29.0173 2.31268 27.2849C2.19638 26.4187 2.25453 25.6067 2.66159 24.6322C2.7779 24.3074 2.95235 23.9826 3.12681 23.5495C3.35941 23.0081 3.65017 22.4126 3.94093 21.8712L3.99908 21.8171C6.49961 16.7824 9.1746 11.6394 11.9659 6.65882L12.0822 6.44227C12.3729 5.95504 12.6637 5.41367 12.9545 4.8723C13.2452 4.33094 13.5941 3.84371 13.943 3.41061C14.699 2.59856 15.7458 2.16547 16.8506 2.16547C17.9555 2.16547 19.0023 2.59856 19.7582 3.41061C20.1653 3.84371 20.4561 4.33094 20.7468 4.8723C21.0376 5.35954 21.3283 5.9009 21.6191 6.44227L21.7354 6.65882C24.4685 11.6935 27.1435 16.8365 29.644 21.8171V21.8712C29.9348 22.4126 30.1674 23.0081 30.4582 23.5495C30.6326 23.9284 30.8071 24.3074 30.9234 24.6322C31.3304 25.5526 31.4468 26.4187 31.2723 27.2849Z" fill="#6D6CE3"/>
</svg>
