<svg width="40" height="40" viewBox="0 0 40 40" fill="none" xmlns="http://www.w3.org/2000/svg">
<rect width="40" height="40" rx="8" fill="white"/>
<g clip-path="url(#clip0_2902_958)">
<path d="M30.9947 30.9998V30.9989H31.0002V22.9304C31.0002 18.9832 30.1504 15.9426 25.5359 15.9426C23.3176 15.9426 21.8289 17.16 21.2212 18.314H21.157V16.3111H16.7817V30.9989H21.3376V23.726C21.3376 21.8111 21.7006 19.9595 24.072 19.9595C26.4086 19.9595 26.4434 22.1448 26.4434 23.8489V30.9998H30.9947Z" fill="#6C63FF"/>
<path d="M9.36328 16.3123H13.9246V31H9.36328V16.3123Z" fill="#6C63FF"/>
<path d="M11.6418 9C10.1834 9 9 10.1834 9 11.6418C9 13.1003 10.1834 14.3084 11.6418 14.3084C13.1003 14.3084 14.2837 13.1003 14.2837 11.6418C14.2828 10.1834 13.0993 9 11.6418 9V9Z" fill="#6C63FF"/>
</g>
<defs>
<clipPath id="clip0_2902_958">
<rect width="22" height="22" fill="white" transform="translate(9 9)"/>
</clipPath>
</defs>
</svg>
