<svg width="179" height="130" viewBox="0 0 179 130" fill="none" xmlns="http://www.w3.org/2000/svg">
<path d="M29.7286 65.052C17.5304 73.5284 8.79395 84.7995 4.61525 95.3623C2.69139 100.102 1.45534 105.041 0.959258 109.97C0.546812 113.709 0.605303 117.407 1.13303 120.955C1.47559 123.227 2.03734 125.412 2.80933 127.477C3.3891 128.879 3.74164 129.566 3.83914 129.525C3.93663 129.485 2.83341 126.47 2.26761 120.666C1.54847 112.571 3.0436 104.017 6.56737 96.0655C10.7719 86.1254 19.3947 75.617 31.1875 67.757C37.4177 63.5921 44.0339 60.431 50.8025 58.385C58.2084 56.1099 65.7048 55.4453 72.8561 56.4299C80.366 57.5045 87.168 60.8073 92.5987 66.0162C95.6032 68.8585 98.0446 72.3557 99.813 76.3501C96.8566 76.5014 93.7682 76.623 90.5471 76.9446C86.7041 77.2621 82.8315 78.1208 79.0215 79.5003C75.0349 80.9834 71.2456 83.3807 67.9199 86.524C64.5129 89.6871 61.7063 93.5979 59.7339 97.9305C57.7615 102.263 56.6804 106.892 56.5807 111.432C56.5459 116.535 58.1355 121.19 61.0735 124.591C62.7397 126.465 64.8925 127.737 67.3213 128.282C69.6538 128.756 72.13 128.668 74.5971 128.024C76.8233 127.468 79.0303 126.667 81.1841 125.634C83.2975 124.647 85.366 123.491 87.3711 122.175C89.3585 120.906 91.2731 119.467 93.0948 117.875C94.9262 116.302 96.6438 114.557 98.2233 112.664C99.8082 110.781 101.216 108.729 102.416 106.552C103.67 104.398 104.689 102.115 105.449 99.761C106.981 95.0342 107.538 90.1524 107.073 85.5129C106.953 84.2333 106.766 82.9745 106.514 81.7424C107.989 81.5985 109.464 81.4163 110.919 81.1689C117.208 80.088 123.438 77.5169 129.179 73.633C133.893 70.4268 138.258 66.5121 142.124 62.0226C147.945 55.1741 152.753 47.3873 156.309 39.049C158.718 33.533 160.772 27.8881 162.455 22.1634C163.811 17.6646 164.678 14.249 165.27 11.7091C165.749 9.70222 166.074 8.17465 166.272 7.0601L166.624 8.09068C167.139 9.39572 167.788 10.6121 168.56 11.7194C169.823 13.5263 171.311 15.113 172.989 16.4434C175.826 18.6623 177.875 19.5164 178.329 19.0136C178.783 18.5109 177.481 16.6114 175.41 13.8716C174.222 12.3463 173.14 10.7168 172.171 8.99395C171.638 8.047 171.19 7.03477 170.831 5.96901L170.302 4.1444C170.185 3.77535 170.061 3.38457 169.874 2.95154C169.656 2.43602 169.375 1.96493 169.037 1.54962C168.616 1.0406 168.083 0.66042 167.476 0.435723C166.868 0.211027 166.202 0.147236 165.522 0.248773C165.196 0.302366 164.87 0.386849 164.547 0.501269C164.22 0.629229 163.893 0.795473 163.733 0.870307L162.757 1.42897C161.545 2.1299 160.402 2.81827 159.322 3.51064C157.401 4.72907 155.525 6.05627 153.703 7.48605C150.628 9.93106 148.953 11.802 149.251 12.3527C149.548 12.9034 151.769 12.0202 155.155 10.3607C156.854 9.53355 158.833 8.50298 161.034 7.36332L163.082 6.32026C162.62 7.41367 162.1 8.90756 161.405 10.9687C160.563 13.4926 159.439 16.7939 157.951 21.1865C156.105 26.6373 153.976 32.0115 151.578 37.2791C148.135 44.9745 143.587 52.1512 138.143 58.4801C134.633 62.4898 130.689 65.9892 126.44 68.864C121.431 72.2439 115.997 74.4757 110.513 75.4048C108.648 75.7492 106.742 75.9251 104.759 76.0919C102.682 70.7417 99.5603 66.1113 95.5866 62.4851C89.5283 56.8499 81.9781 53.3361 73.676 52.2881C65.9856 51.3561 57.945 52.2046 50.028 54.7836C42.9518 57.0828 36.0604 60.5576 29.6033 65.0823L29.7286 65.052ZM102.354 86.6022C102.705 90.556 102.189 94.7042 100.848 98.7098C100.199 100.68 99.327 102.587 98.2565 104.38C97.1872 106.218 95.9495 107.946 94.5679 109.53C93.186 111.157 91.6859 112.655 90.0886 114.003C88.4666 115.394 86.7643 116.648 84.9996 117.753C83.2247 118.878 81.3962 119.86 79.5306 120.691C77.703 121.554 75.8323 122.222 73.9463 122.687C72.2952 123.201 70.6224 123.272 69.0741 122.893C67.5259 122.514 66.1493 121.696 65.0647 120.511C62.9728 117.973 61.8612 114.55 61.9171 110.82C61.9095 109.008 62.1498 107.159 62.63 105.336C63.0891 103.486 63.7492 101.671 64.5946 99.9317C66.2542 96.4913 68.5217 93.3794 71.2357 90.8172C73.9497 88.255 77.0436 86.3055 80.2973 85.1074C83.6322 83.9348 87.0168 83.2054 90.375 82.9356C94.1319 82.5632 97.8948 82.4804 101.637 82.2942C101.962 83.7102 102.195 85.1662 102.333 86.6519" fill="#6D6CE3"/>
</svg>
