<svg width="20" height="20" viewBox="0 0 20 20" fill="none" xmlns="http://www.w3.org/2000/svg">
<path d="M12.714 11.0078C12.8259 11.0078 13.2454 11.1972 13.9725 11.5762C14.6997 11.9552 15.0848 12.1835 15.1278 12.261C15.145 12.304 15.1536 12.3686 15.1536 12.4548C15.1536 12.739 15.0805 13.0663 14.9342 13.4367C14.7965 13.7726 14.491 14.0547 14.0177 14.2829C13.5444 14.5112 13.1056 14.6253 12.7011 14.6253C12.2106 14.6253 11.3932 14.3583 10.2487 13.8243C9.40538 13.4367 8.67395 12.9285 8.05438 12.2997C7.43481 11.671 6.79804 10.8742 6.14405 9.90956C5.52448 8.98794 5.219 8.15245 5.2276 7.4031V7.29974C5.25342 6.51593 5.57181 5.83549 6.18277 5.2584C6.38929 5.06891 6.61303 4.97416 6.85397 4.97416C6.9056 4.97416 6.98304 4.98062 7.08631 4.99354C7.18957 5.00646 7.27132 5.01292 7.33155 5.01292C7.49505 5.01292 7.60907 5.04091 7.6736 5.0969C7.73814 5.15289 7.80483 5.27132 7.87367 5.4522C7.94251 5.62446 8.0845 6.00345 8.29963 6.58915C8.51475 7.17485 8.62232 7.49785 8.62232 7.55814C8.62232 7.73902 8.47388 7.98665 8.177 8.30103C7.88013 8.61542 7.73169 8.81568 7.73169 8.90181C7.73169 8.9621 7.7532 9.0267 7.79623 9.09561C8.0888 9.72438 8.52766 10.3144 9.11281 10.8656C9.5947 11.3221 10.2444 11.7571 11.0619 12.1705C11.1651 12.2308 11.2598 12.261 11.3458 12.261C11.4749 12.261 11.7072 12.0521 12.0428 11.6344C12.3784 11.2166 12.6022 11.0078 12.714 11.0078ZM10.0938 17.8553C11.1866 17.8553 12.2343 17.64 13.2368 17.2093C14.2393 16.7786 15.102 16.2015 15.8248 15.478C16.5476 14.7545 17.1242 13.891 17.5544 12.8876C17.9847 11.8842 18.1998 10.8355 18.1998 9.7416C18.1998 8.64772 17.9847 7.59905 17.5544 6.59561C17.1242 5.59216 16.5476 4.72868 15.8248 4.00517C15.102 3.28165 14.2393 2.70456 13.2368 2.2739C12.2343 1.84324 11.1866 1.62791 10.0938 1.62791C9.00094 1.62791 7.95327 1.84324 6.95078 2.2739C5.94828 2.70456 5.08562 3.28165 4.36279 4.00517C3.63996 4.72868 3.06342 5.59216 2.63316 6.59561C2.20291 7.59905 1.98778 8.64772 1.98778 9.7416C1.98778 11.4901 2.50409 13.0749 3.5367 14.4961L2.51699 17.5065L5.64065 16.5116C7.00026 17.4074 8.48464 17.8553 10.0938 17.8553ZM10.0938 0C11.4104 0 12.6689 0.258398 13.8693 0.775194C15.0697 1.29199 16.1045 1.98536 16.9736 2.8553C17.8427 3.72524 18.5354 4.76098 19.0517 5.96253C19.568 7.16408 19.8262 8.42377 19.8262 9.7416C19.8262 11.0594 19.568 12.3191 19.0517 13.5207C18.5354 14.7222 17.8427 15.758 16.9736 16.6279C16.1045 17.4978 15.0697 18.1912 13.8693 18.708C12.6689 19.2248 11.4104 19.4832 10.0938 19.4832C8.4158 19.4832 6.84536 19.0784 5.38249 18.2687L0 20L1.75544 14.7674C0.82609 13.2343 0.361415 11.559 0.361415 9.7416C0.361415 8.42377 0.619568 7.16408 1.13587 5.96253C1.65218 4.76098 2.34489 3.72524 3.21401 2.8553C4.08312 1.98536 5.11789 1.29199 6.3183 0.775194C7.51871 0.258398 8.77721 0 10.0938 0Z" fill="white"/>
</svg>
