<svg version="1.2" baseProfile="tiny-ps" xmlns="http://www.w3.org/2000/svg" viewBox="0 0 140 30" width="140" height="30">
	<title>Ethsideprizes-svg</title>
	<defs>
		<linearGradient id="grd1" gradientUnits="userSpaceOnUse"  x1="0.436" y1="19.519" x2="28.435" y2="14.582">
			<stop offset="0" stop-color="#2d0f25"  />
			<stop offset="0.302" stop-color="#a0004c"  />
			<stop offset="0.626" stop-color="#d12da6"  />
			<stop offset="1" stop-color="#2290bc"  />
		</linearGradient>
		<linearGradient id="grd2" gradientUnits="userSpaceOnUse"  x1="0.693" y1="18.173" x2="27.733" y2="13.405">
			<stop offset="0" stop-color="#2290bc"  />
			<stop offset="0.374" stop-color="#d12da6"  />
			<stop offset="0.698" stop-color="#a0004c"  />
			<stop offset="1" stop-color="#2d0f25"  />
		</linearGradient>
	</defs>
	<style>
		tspan { white-space:pre }
		.shp0 { fill: url(#grd1) } 
		.shp1 { fill: url(#grd2) } 
		.shp2 { fill: #000000 } 
		.shp3 { fill: #808080 } 
		.shp4 { fill: #191919 } 
		.shp5 { fill: #333333 } 
	</style>
	<g id="Layer">
		<g id="Layer">
			<g id="Layer">
				<g id="Layer">
					<g id="Layer">
						<path id="Layer" class="shp0" d="M27.8 27.79C27.78 27.72 27.76 27.65 27.74 27.57L27.71 27.46L27.68 27.36C27.66 27.29 27.64 27.21 27.62 27.14L27.55 26.93C27.44 26.65 27.33 26.38 27.2 26.11C27.07 25.84 26.93 25.57 26.78 25.32C26.5 24.84 26.18 24.39 25.84 23.96C27.47 21.65 28.43 18.83 28.43 15.79C28.43 7.94 22.06 1.58 14.21 1.58C6.36 1.58 0 7.94 0 15.79C0 18.81 0.95 21.62 2.56 23.92C2.52 23.95 2.49 23.97 2.46 24.01C2.41 24.04 2.37 24.09 2.32 24.14C2.3 24.17 2.28 24.2 2.26 24.23C2.24 24.26 2.23 24.29 2.21 24.33C2.14 24.46 2.12 24.62 2.12 24.76C2.13 24.9 2.17 25.02 2.21 25.13C2.25 25.24 2.3 25.34 2.36 25.42L2.4 25.49L2.44 25.55L2.48 25.62C2.5 25.64 2.51 25.66 2.53 25.68L2.58 25.74C2.59 25.76 2.61 25.78 2.63 25.8C2.65 25.82 2.66 25.84 2.68 25.86L2.74 25.92C2.75 25.93 2.76 25.94 2.78 25.95L2.81 25.98C2.83 26 2.86 26.02 2.88 26.04C2.91 26.05 2.93 26.07 2.96 26.09C2.99 26.11 3.02 26.12 3.05 26.14C3.08 26.15 3.12 26.17 3.15 26.18C3.18 26.19 3.22 26.2 3.26 26.21C3.33 26.23 3.41 26.23 3.49 26.23C3.65 26.22 3.78 26.16 3.89 26.11C3.92 26.09 3.94 26.08 3.96 26.06L4.02 26.03L4.14 25.95L4.22 25.9C4.4 26.07 4.57 26.24 4.75 26.4L4.75 27.17C4.53 27.35 4.31 27.52 4.09 27.71C3.95 27.82 3.82 27.93 3.68 28.05C3.62 28.11 3.55 28.17 3.48 28.24C3.41 28.32 3.34 28.4 3.29 28.5C3.24 28.59 3.21 28.7 3.2 28.81C3.19 28.92 3.2 29.02 3.23 29.12C3.28 29.31 3.38 29.47 3.49 29.62C3.59 29.76 3.7 29.9 3.81 30.03C3.93 30.17 4.05 30.3 4.17 30.42C4.07 30.28 3.98 30.13 3.89 29.98C3.8 29.83 3.71 29.68 3.64 29.53C3.56 29.37 3.51 29.22 3.49 29.07C3.48 28.99 3.49 28.92 3.51 28.86C3.52 28.8 3.56 28.74 3.6 28.69C3.64 28.63 3.69 28.59 3.75 28.54C3.81 28.5 3.88 28.45 3.95 28.41C4.1 28.32 4.25 28.23 4.4 28.15C4.7 27.98 5 27.81 5.31 27.64L5.31 27.64L5.47 27.54L5.47 27.34L5.47 26.99C7.88 28.88 10.92 30 14.21 30C18.76 30 22.8 27.87 25.4 24.55C25.52 24.69 25.64 24.83 25.75 24.97C25.93 25.19 26.1 25.42 26.26 25.65C26.42 25.88 26.57 26.12 26.72 26.36C26.86 26.61 26.99 26.86 27.11 27.11C27.23 27.37 27.34 27.63 27.43 27.89L27.5 28.09C27.52 28.16 27.54 28.23 27.56 28.3C27.57 28.33 27.58 28.37 27.59 28.4L27.62 28.5L27.64 28.61L27.66 28.66L27.67 28.71L27.71 28.92C27.72 28.99 27.73 29.06 27.75 29.13C27.75 29.17 27.76 29.2 27.76 29.24L27.78 29.34L27.79 29.45C27.79 29.49 27.8 29.52 27.8 29.56L27.82 29.77C27.82 29.84 27.82 29.92 27.83 29.99C27.84 30.13 27.83 30.28 27.83 30.42C27.89 30.14 27.93 29.85 27.95 29.55C27.97 29.26 27.96 28.96 27.94 28.67C27.91 28.37 27.86 28.08 27.8 27.79Z" />
						<path id="Layer" class="shp1" d="M14.21 29.52C6.62 29.52 0.49 23.38 0.49 15.79C0.49 8.2 6.62 2.06 14.21 2.06C21.8 2.06 27.94 8.2 27.94 15.79C27.94 23.38 21.8 29.52 14.21 29.52Z" />
					</g>
					<path id="Layer" class="shp2" d="M4.17 30.42C4.17 30.42 3.65 29.78 3.46 29.39C3.27 28.99 3.29 28.65 3.69 28.33C4.08 28.02 5.11 27.34 5.11 27.34L5.11 26.08C5.32 25.99 5.47 25.89 5.49 25.7C5.51 25.51 5.54 24.65 5.54 24.65C5.54 24.65 4.02 25.61 3.78 25.75C3.55 25.9 3.21 26.02 2.78 25.41C2.34 24.8 2.39 24.42 2.9 24.12C3.57 23.73 6.16 22.23 6.16 22.23C6.05 20.96 7.1 20.65 7.75 21.17C7.75 20.81 7.75 20.59 7.75 20.59C7.02 20.67 6.43 20.45 6.52 19.68C6.61 18.92 6.9 17.93 6.96 17.56C7.01 17.18 6.57 16.67 6.08 17.03C5.59 17.38 4.58 17.52 4.11 17.03C3.63 16.53 4.04 15.81 5.59 14.71C5.6 13.61 5.41 9.22 5.43 8.69C5.45 8.17 5.34 7.81 6.05 7.39C6.76 6.96 10.48 5.27 13.52 4.9C16.57 4.53 16.94 4.64 17.42 6.12C17.9 7.6 18.8 10 18.8 10C21.09 9.59 21.61 11.08 19.33 12.82C19.51 14.74 18.59 14.76 18.94 15.92C19.28 17.07 19.62 18.25 19.62 18.25C20.9 17.99 21.14 18.46 21.14 18.82C21.54 18.81 21.69 19.01 21.87 19.53C22.05 20.05 22.95 21.45 24.42 22.94C25.89 24.43 28.24 27.13 27.83 30.42C27.56 30.42 4.17 30.42 4.17 30.42Z" />
					<g id="Layer">
						<path id="Layer" class="shp3" d="M21.61 19.69C21.6 19.67 21.59 19.65 21.58 19.63C21.47 19.35 21.1 19.62 20.52 20C20 20.34 15.34 23.39 14.02 24.28C15.76 23.2 21.1 19.86 21.27 19.77C21.42 19.69 21.53 19.67 21.61 19.69Z" />
						<path id="Layer" class="shp4" d="M21.02 20.76C20.49 21.12 16.34 23.77 16.34 23.77L20.77 21.35L20.42 21.89C22.35 22.07 23.52 22.66 24.06 23C22.93 21.83 22.11 20.65 21.74 19.96C21.7 20.17 21.48 20.45 21.02 20.76Z" />
						<path id="Layer" class="shp3" d="M25.43 26.78L25.43 26.78C24.03 24.68 20.48 25.43 19.04 27.09C19.04 27.09 19.04 27.09 19.04 27.09C20.91 25.76 22.76 25.76 24.11 26.34C23.72 25.97 23.04 25.79 23.02 25.79C23.85 25.88 24.67 26.2 25.43 26.78Z" />
						<path id="Layer" class="shp5" d="M19.04 27.09C19.04 27.09 19.04 27.09 19.04 27.09C20.48 25.43 24.03 24.68 25.43 26.78L25.43 26.78C26.07 27.28 26.66 27.96 27.17 28.86C26.91 28.01 26.43 26.9 25.54 26.06C25.54 26.06 26.7 26.81 27.24 27.65C27.07 27.15 26.85 26.65 26.57 26.15C25.84 24.87 24.87 23.82 24.21 23.15C24.16 23.1 24.11 23.05 24.06 23C23.52 22.66 22.35 22.07 20.42 21.89L20.77 21.35L16.34 23.77C16.34 23.77 20.49 21.12 21.02 20.76C21.48 20.45 21.7 20.17 21.74 19.96C21.69 19.86 21.64 19.77 21.61 19.69C21.53 19.67 21.42 19.69 21.27 19.77C21.1 19.86 15.76 23.2 14.02 24.28C13.86 24.39 13.75 24.46 13.7 24.5C13.23 24.85 13.06 25.14 13.55 25.52C14.03 25.9 14.29 26.38 13.96 26.65C13.64 26.93 12.33 28.19 12.33 28.19C12.33 28.19 16.11 25.14 17.7 24.19C17.7 24.19 16.71 25.48 16.37 26.01C17.08 25.47 17.83 25.1 18.38 24.86C19.31 24.35 20.3 24.01 21.35 23.96L21.35 23.96C21.35 23.96 22.4 23.76 23.35 24L23.01 23.72C23.01 23.72 25.02 24.17 25.57 25.37C24.27 24.58 23.02 24.26 21.86 24.29C17.15 25.67 15.48 30.12 15.48 30.12C15.48 30.12 16.33 28.8 17.79 28.04C17.79 28.04 16.98 28.96 16.59 30.12L16.94 30.12C17.4 28.87 18.15 27.84 19.04 27.09Z" />
						<path id="Layer" class="shp4" d="M21.86 24.29C18.55 24.36 15.98 27.27 14.95 30.12L15.48 30.12C15.48 30.12 17.15 25.67 21.86 24.29Z" />
						<path id="Layer" class="shp4" d="M17.7 24.19C16.11 25.62 15.09 27.41 15.09 27.41C16.1 26.45 17.19 25.52 18.38 24.86C17.83 25.1 17.08 25.47 16.37 26.01C16.71 25.48 17.7 24.19 17.7 24.19Z" />
						<path id="Layer" class="shp4" d="M25.43 26.78L25.49 26.95L25.43 26.78C24.67 26.2 23.85 25.88 23.02 25.79C23.04 25.79 23.72 25.97 24.11 26.34C22.76 25.76 20.91 25.76 19.04 27.09C18.15 27.84 17.4 28.87 16.94 30.12C16.94 30.12 18.73 26.45 22.16 26.45C24.71 26.45 25.77 30.12 25.77 30.12C25.77 30.12 25.72 26.86 22.66 26.15C22.66 26.15 25.16 25.86 26.83 30.12L27.44 30.12C27.44 30.12 27.39 29.59 27.17 28.86C26.66 27.96 26.07 27.28 25.43 26.78Z" />
						<path id="Layer" class="shp3" d="M23.01 23.72L23.35 24C22.4 23.76 21.35 23.96 21.35 23.96L21.35 23.96C22.66 23.89 24.07 24.29 25.57 25.37C25.02 24.17 23.01 23.72 23.01 23.72Z" />
						<path id="Layer" class="shp3" d="M13.99 23.69C13.86 22.94 13.68 22.66 14.21 22.35C14.75 22.04 18.7 19.41 19.55 18.99C19.59 18.97 19.62 18.95 19.66 18.93C20.43 18.57 20.71 18.66 20.84 18.8C20.82 18.5 20.36 18.3 19.79 18.59C18.59 19.2 13.93 22.19 13.72 22.34C13.48 22.51 13.62 23.18 13.99 23.69Z" />
						<path id="Layer" class="shp5" d="M19.66 18.93C19.22 19.49 19.78 19.61 19.71 19.85L20.84 19.14L20.84 18.82C20.84 18.81 20.84 18.81 20.84 18.8C20.71 18.66 20.43 18.57 19.66 18.93Z" />
						<path id="Layer" class="shp3" d="M18.51 16.16C18.58 16.4 18.66 16.64 18.73 16.88C18.89 17.35 19.04 17.83 19.21 18.3C19.09 17.81 18.97 17.33 18.84 16.85C18.78 16.6 18.71 16.36 18.64 16.12C18.61 16 18.58 15.88 18.56 15.77C18.54 15.65 18.53 15.53 18.53 15.41C18.54 15.17 18.6 14.94 18.7 14.71C18.74 14.6 18.8 14.49 18.84 14.37C18.89 14.25 18.93 14.12 18.96 14C19.02 13.75 19.03 13.49 19.01 13.23C19 13.11 18.99 12.98 18.97 12.86C18.94 12.73 18.92 12.61 18.89 12.49C18.89 12.61 18.88 12.74 18.88 12.86C18.88 12.93 18.89 12.99 18.88 13.05C18.88 13.11 18.88 13.17 18.88 13.23C18.87 13.48 18.84 13.72 18.79 13.96C18.76 14.07 18.72 14.19 18.68 14.3C18.63 14.42 18.58 14.53 18.54 14.65C18.49 14.77 18.45 14.89 18.41 15.02C18.38 15.14 18.37 15.27 18.37 15.4C18.37 15.54 18.38 15.67 18.41 15.79C18.43 15.92 18.47 16.04 18.51 16.16Z" />
						<path id="Layer" class="shp3" d="M5.86 12.93C5.86 12.93 6.04 9.85 6.06 9.11C6.08 8.48 6.31 8.06 7.77 7.31C8.05 7.16 8.38 7 8.77 6.82C11.12 5.74 15.21 5.04 15.21 5.04C14.77 5.06 14.22 5.12 13.56 5.2C10.54 5.57 6.87 7.25 6.21 7.65C5.74 7.92 5.74 8.09 5.74 8.48C5.74 8.55 5.74 8.63 5.74 8.71C5.73 8.94 5.76 10 5.8 11.13C5.82 11.72 5.84 12.35 5.86 12.93Z" />
						<path id="Layer" class="shp5" d="M6.06 9.11C6.04 9.85 5.86 12.93 5.86 12.93L8.63 12.17L6.71 12.42C7.89 11.76 8.09 11.33 8.03 10.77C7.98 10.21 6.81 9.64 6.97 8.64C7.06 8.06 7.45 7.6 7.77 7.31C6.31 8.06 6.08 8.48 6.06 9.11Z" />
						<path id="Layer" class="shp3" d="M5.87 13.29C5.88 13.68 5.89 14.03 5.89 14.31L6.05 14.24L6.16 13.43C6.16 13.43 6.55 13.28 7.06 13.08C7.7 12.84 8.53 12.53 9.05 12.35C7.19 12.71 5.87 13.29 5.87 13.29Z" />
						<path id="Layer" class="shp5" d="M6.05 14.24L7.25 13.7L6.94 13.77L6.92 13.46L7.08 13.4L7.06 13.08C6.55 13.28 6.16 13.43 6.16 13.43L6.05 14.24Z" />
						<path id="Layer" class="shp3" d="M14.82 11.01C14.82 11.01 10.91 11.68 6.29 14.75L6.77 14.31C6.77 14.31 6.21 14.48 5.95 14.79C5.89 14.85 5.83 14.9 5.76 14.95C4.53 15.83 4.25 16.32 4.23 16.56C4.22 16.57 4.22 16.58 4.22 16.59C4.22 16.59 7.44 13.31 14.82 11.01Z" />
						<path id="Layer" class="shp3" d="M3.05 24.39C2.9 24.48 2.81 24.57 2.79 24.66C2.76 24.79 2.84 24.98 3.02 25.23C3.08 25.32 3.14 25.39 3.19 25.44C3.18 25.25 3.1 25.1 3.06 24.98C3.03 24.86 3.08 24.84 3.16 24.88C3.23 24.92 3.26 24.9 3.3 24.73C3.34 24.55 3.41 24.45 3.64 24.28C3.86 24.13 5.78 22.81 5.78 22.81C4.98 23.27 3.53 24.1 3.05 24.39Z" />
						<path id="Layer" class="shp3" d="M6.34 25.06C6.67 24.93 6.74 24.84 6.84 24.49C6.93 24.14 7.06 23.84 7.59 23.98C8.12 24.12 8.34 24.02 8.35 23.82C8.37 23.62 7.87 23.51 7.66 23.34C7.45 23.16 7.27 22.78 7.5 22.47C7.32 22.39 6.89 22.84 6.77 22.31C6.65 21.79 6.91 21.53 7.38 21.66C7.29 21.38 6.92 21.3 6.66 21.42C6.27 21.59 6.22 22.12 6.67 22.61C7.13 23.1 7.51 23.67 7.51 23.67C7.07 23.74 6.57 24.04 6.54 24.41C6.5 24.77 6.4 24.8 6.19 24.88C5.97 24.96 5.83 25.04 5.82 25.26C5.81 25.46 5.8 25.65 5.79 25.73C5.77 25.9 5.7 26.03 5.61 26.12C5.48 26.25 5.42 26.42 5.42 26.6L5.42 27.15C5.6 26.4 5.67 26.08 5.82 26.34C5.97 26.6 6.15 26.73 6.15 26.73C6.11 26.3 6.03 26.26 6.04 25.83C6.06 25.4 6.02 25.19 6.34 25.06Z" />
						<path id="Layer" class="shp4" d="M5.46 28.58C4.39 28.71 4.52 29.36 4.93 29.59C5.25 29.76 5.6 29.93 5.61 30.12L7.04 30.12C7.04 30.12 7.11 29.62 6.49 29.4C5.87 29.18 5.2 28.94 6.22 27.92C6.22 27.92 5.05 28.28 4.45 28.5C4.45 28.5 4.45 28.5 4.45 28.5C4.87 28.42 5.18 28.46 5.46 28.58Z" />
						<path id="Layer" class="shp5" d="M4.93 29.59C4.52 29.36 4.39 28.71 5.46 28.58C5.18 28.46 4.87 28.42 4.45 28.5C4.36 28.56 4.27 28.62 4.18 28.69C3.99 28.81 3.88 29.04 3.91 29.27C3.92 29.41 3.95 29.56 3.99 29.67C4.1 29.84 4.22 30 4.31 30.12L5.61 30.12C5.6 29.93 5.25 29.76 4.93 29.59Z" />
						<path id="Layer" class="shp3" d="M3.85 28.58C3.66 28.74 3.55 28.88 3.73 29.25C3.79 29.37 3.89 29.52 3.99 29.67C3.95 29.56 3.92 29.41 3.91 29.27C3.88 29.04 3.99 28.81 4.18 28.69C4.27 28.62 4.36 28.56 4.45 28.5C4.45 28.5 4.45 28.5 4.45 28.5C4.45 28.5 4.45 28.5 4.45 28.5C7.39 26.57 8.68 26.28 10.7 26.41C8.61 25.8 6 26.83 3.85 28.58Z" />
						<path id="Layer" class="shp3" d="M7.23 23.51C7 23.21 6.29 23.55 6.42 24.19C6.58 23.73 6.94 23.58 7.23 23.51Z" />
						<path id="Layer" class="shp3" d="M15.01 14.31C14.96 14.31 14.91 14.31 14.85 14.31C14.8 14.32 14.74 14.33 14.69 14.34L14.62 14.36C14.59 14.37 14.56 14.38 14.54 14.39C14.34 14.45 14.16 14.56 14 14.7C14.18 14.6 14.37 14.52 14.57 14.48C14.59 14.47 14.61 14.47 14.64 14.47L14.71 14.45C14.74 14.45 14.76 14.45 14.79 14.45L14.86 14.44L14.93 14.45C14.96 14.45 14.98 14.45 15 14.45C15.05 14.46 15.1 14.46 15.15 14.48L15.22 14.49L15.28 14.52C15.33 14.53 15.37 14.56 15.41 14.58C15.43 14.59 15.45 14.6 15.47 14.61C15.49 14.63 15.51 14.64 15.53 14.65C15.57 14.68 15.61 14.71 15.64 14.74C15.71 14.81 15.77 14.89 15.82 14.96C15.83 14.98 15.84 15.01 15.85 15.03C15.86 15.05 15.88 15.07 15.89 15.09L15.91 15.16C15.92 15.17 15.92 15.18 15.93 15.19L15.94 15.22C16 15.41 16.03 15.6 16.02 15.8C16.02 16 15.99 16.19 15.93 16.39C15.82 16.77 15.63 17.13 15.4 17.48C15.68 17.17 15.91 16.82 16.05 16.43C16.12 16.23 16.17 16.02 16.18 15.81C16.2 15.59 16.17 15.37 16.11 15.17L16.09 15.13C16.09 15.12 16.08 15.1 16.08 15.09L16.05 15.02C16.04 14.99 16.02 14.97 16.01 14.94C16 14.92 15.98 14.89 15.97 14.87L15.92 14.8L15.9 14.77C15.89 14.76 15.88 14.75 15.87 14.74L15.82 14.67C15.8 14.65 15.78 14.63 15.76 14.62C15.68 14.54 15.59 14.48 15.49 14.43L15.41 14.39C15.39 14.38 15.36 14.37 15.34 14.37L15.26 14.34L15.18 14.33C15.12 14.31 15.07 14.31 15.01 14.31Z" />
					</g>
				</g>
				<g id="Layer">
					<path id="Layer" class="shp2" d="M33.52 11.79L33.52 16L35.86 16C36.47 16 36.88 15.91 37.08 15.73C37.35 15.49 37.5 15.06 37.54 14.45L37.83 14.45L37.83 18.16L37.54 18.16C37.46 17.64 37.39 17.31 37.32 17.16C37.22 16.98 37.07 16.84 36.85 16.73C36.64 16.63 36.31 16.58 35.86 16.58L33.52 16.58L33.52 20.09C33.52 20.56 33.54 20.84 33.59 20.95C33.63 21.05 33.7 21.13 33.81 21.19C33.91 21.25 34.11 21.28 34.4 21.28L36.21 21.28C36.81 21.28 37.25 21.24 37.52 21.15C37.79 21.07 38.05 20.91 38.31 20.66C38.63 20.34 38.96 19.85 39.3 19.19L39.62 19.19L38.7 21.86L30.49 21.86L30.49 21.57L30.87 21.57C31.12 21.57 31.36 21.51 31.58 21.39C31.75 21.31 31.86 21.18 31.92 21.01C31.98 20.85 32.01 20.5 32.01 19.98L32.01 13.06C32.01 12.39 31.95 11.97 31.81 11.82C31.62 11.61 31.31 11.5 30.87 11.5L30.49 11.5L30.49 11.21L38.7 11.21L38.82 13.54L38.51 13.54C38.4 12.98 38.28 12.6 38.14 12.39C38.01 12.18 37.81 12.02 37.55 11.91C37.34 11.83 36.97 11.79 36.44 11.79L33.52 11.79L33.52 11.79Z" />
					<path id="Layer" class="shp2" d="M44.03 12.3L44.03 14.67L45.71 14.67L45.71 15.22L44.03 15.22L44.03 19.88C44.03 20.35 44.09 20.66 44.23 20.82C44.36 20.99 44.53 21.07 44.74 21.07C44.91 21.07 45.08 21.01 45.24 20.91C45.41 20.8 45.53 20.64 45.62 20.43L45.93 20.43C45.74 20.95 45.48 21.33 45.15 21.59C44.81 21.85 44.47 21.98 44.11 21.98C43.87 21.98 43.64 21.91 43.41 21.78C43.18 21.65 43.01 21.45 42.9 21.21C42.79 20.96 42.73 20.57 42.73 20.06L42.73 15.22L41.59 15.22L41.59 14.96C41.88 14.84 42.17 14.65 42.48 14.37C42.78 14.1 43.04 13.77 43.28 13.39C43.4 13.2 43.57 12.83 43.78 12.3L44.03 12.3L44.03 12.3Z" />
					<path id="Layer" class="shp2" d="M49.97 10.69L49.97 15.95C50.55 15.32 51.01 14.91 51.35 14.73C51.69 14.54 52.03 14.45 52.37 14.45C52.78 14.45 53.13 14.57 53.42 14.79C53.72 15.02 53.93 15.37 54.07 15.85C54.17 16.19 54.22 16.8 54.22 17.69L54.22 20.24C54.22 20.69 54.26 21 54.33 21.17C54.39 21.3 54.48 21.4 54.6 21.47C54.73 21.54 54.96 21.58 55.29 21.58L55.29 21.86L51.76 21.86L51.76 21.58L51.92 21.58C52.26 21.58 52.49 21.53 52.62 21.43C52.75 21.32 52.84 21.17 52.9 20.97C52.91 20.89 52.92 20.64 52.92 20.24L52.92 17.69C52.92 16.91 52.88 16.39 52.8 16.14C52.72 15.9 52.59 15.71 52.41 15.59C52.23 15.47 52.02 15.41 51.77 15.41C51.51 15.41 51.24 15.47 50.96 15.61C50.69 15.75 50.35 16.02 49.97 16.43L49.97 20.24C49.97 20.73 49.99 21.03 50.05 21.15C50.1 21.28 50.21 21.38 50.36 21.46C50.51 21.54 50.76 21.58 51.13 21.58L51.13 21.86L47.56 21.86L47.56 21.58C47.88 21.58 48.13 21.53 48.32 21.43C48.42 21.38 48.51 21.28 48.57 21.13C48.63 20.98 48.66 20.69 48.66 20.24L48.66 13.72C48.66 12.9 48.64 12.4 48.6 12.21C48.56 12.02 48.5 11.89 48.42 11.82C48.34 11.76 48.23 11.72 48.1 11.72C47.99 11.72 47.81 11.76 47.56 11.85L47.45 11.57L49.61 10.69L49.97 10.69L49.97 10.69Z" />
					<path id="Layer" class="shp2" d="M61.99 14.45L61.99 16.91L61.74 16.91C61.54 16.14 61.28 15.61 60.97 15.33C60.66 15.06 60.26 14.92 59.78 14.92C59.41 14.92 59.12 15.02 58.89 15.21C58.67 15.4 58.55 15.62 58.55 15.85C58.55 16.15 58.64 16.4 58.81 16.61C58.97 16.82 59.3 17.05 59.8 17.29L60.94 17.85C62.01 18.37 62.54 19.05 62.54 19.9C62.54 20.55 62.29 21.08 61.79 21.48C61.3 21.88 60.75 22.08 60.13 22.08C59.69 22.08 59.19 22 58.63 21.85C58.45 21.79 58.31 21.77 58.2 21.77C58.08 21.77 57.99 21.84 57.92 21.97L57.66 21.97L57.66 19.4L57.92 19.4C58.06 20.14 58.35 20.69 58.76 21.06C59.17 21.43 59.64 21.62 60.15 21.62C60.51 21.62 60.8 21.51 61.03 21.3C61.26 21.09 61.37 20.83 61.37 20.53C61.37 20.17 61.25 19.87 60.99 19.62C60.74 19.38 60.23 19.07 59.47 18.69C58.71 18.31 58.22 17.97 57.98 17.67C57.75 17.37 57.63 16.99 57.63 16.54C57.63 15.94 57.83 15.45 58.24 15.05C58.64 14.65 59.17 14.45 59.81 14.45C60.09 14.45 60.44 14.51 60.84 14.64C61.11 14.71 61.29 14.75 61.37 14.75C61.46 14.75 61.52 14.73 61.57 14.7C61.62 14.66 61.67 14.58 61.74 14.45L61.99 14.45L61.99 14.45Z" />
					<path id="Layer" class="shp2" d="M67.53 14.45L67.53 20.24C67.53 20.69 67.57 20.99 67.63 21.14C67.7 21.28 67.8 21.4 67.92 21.47C68.05 21.54 68.29 21.58 68.63 21.58L68.63 21.86L65.13 21.86L65.13 21.58C65.48 21.58 65.72 21.54 65.84 21.48C65.96 21.41 66.05 21.3 66.12 21.14C66.2 20.98 66.23 20.68 66.23 20.24L66.23 17.46C66.23 16.68 66.21 16.18 66.16 15.95C66.12 15.78 66.07 15.66 65.99 15.6C65.91 15.53 65.8 15.5 65.67 15.5C65.52 15.5 65.34 15.54 65.13 15.62L65.02 15.33L67.19 14.45L67.53 14.45L67.53 14.45ZM66.88 10.69C67.1 10.69 67.29 10.77 67.44 10.92C67.6 11.08 67.68 11.27 67.68 11.49C67.68 11.71 67.6 11.89 67.44 12.05C67.29 12.21 67.1 12.29 66.88 12.29C66.66 12.29 66.47 12.21 66.32 12.05C66.16 11.89 66.08 11.71 66.08 11.49C66.08 11.27 66.16 11.08 66.31 10.92C66.47 10.77 66.66 10.69 66.88 10.69Z" />
					<path id="Layer" fill-rule="evenodd" class="shp2" d="M76.05 21.05C75.7 21.42 75.36 21.68 75.02 21.84C74.69 22 74.33 22.08 73.94 22.08C73.15 22.08 72.47 21.75 71.88 21.1C71.29 20.44 71 19.59 71 18.56C71 17.53 71.33 16.59 71.98 15.73C72.62 14.87 73.46 14.45 74.48 14.45C75.11 14.45 75.64 14.65 76.05 15.05L76.05 13.72C76.05 12.9 76.03 12.4 75.99 12.21C75.95 12.02 75.89 11.89 75.81 11.82C75.72 11.76 75.62 11.72 75.49 11.72C75.36 11.72 75.18 11.76 74.95 11.85L74.85 11.57L76.99 10.69L77.35 10.69L77.35 19.01C77.35 19.85 77.37 20.37 77.41 20.55C77.45 20.74 77.51 20.87 77.6 20.94C77.68 21.02 77.78 21.05 77.9 21.05C78.04 21.05 78.23 21.01 78.46 20.92L78.55 21.19L76.41 22.08L76.05 22.08C76.05 22.08 76.05 21.05 76.05 21.05ZM76.05 20.5L76.05 16.8C76.02 16.44 75.93 16.11 75.77 15.82C75.61 15.53 75.4 15.31 75.14 15.16C74.89 15.01 74.63 14.93 74.39 14.93C73.93 14.93 73.51 15.14 73.15 15.55C72.68 16.1 72.44 16.89 72.44 17.94C72.44 19 72.67 19.81 73.13 20.37C73.59 20.94 74.1 21.22 74.67 21.22C75.15 21.22 75.61 20.98 76.05 20.5Z" />
					<path id="Layer" fill-rule="evenodd" class="shp2" d="M81.67 17.38C81.66 18.44 81.92 19.28 82.45 19.89C82.97 20.5 83.59 20.8 84.29 20.8C84.76 20.8 85.17 20.67 85.52 20.41C85.87 20.15 86.16 19.71 86.4 19.08L86.64 19.24C86.53 19.96 86.21 20.61 85.68 21.2C85.15 21.79 84.49 22.08 83.7 22.08C82.83 22.08 82.09 21.75 81.48 21.07C80.86 20.4 80.55 19.49 80.55 18.36C80.55 17.13 80.87 16.17 81.5 15.48C82.13 14.79 82.92 14.45 83.88 14.45C84.68 14.45 85.35 14.71 85.86 15.24C86.38 15.78 86.64 16.49 86.64 17.38C86.64 17.38 81.67 17.38 81.67 17.38ZM81.67 16.92L85 16.92C84.97 16.46 84.92 16.14 84.84 15.95C84.7 15.65 84.51 15.42 84.25 15.26C83.99 15.09 83.72 15 83.44 15C83 15 82.61 15.17 82.27 15.51C81.93 15.85 81.73 16.32 81.67 16.92Z" />
					<path id="Layer" fill-rule="evenodd" class="shp2" d="M97.31 16.87L97.31 19.98C97.31 20.65 97.39 21.06 97.53 21.23C97.73 21.46 98.03 21.57 98.44 21.57L98.85 21.57L98.85 21.86L94.28 21.86L94.28 21.57L94.68 21.57C95.13 21.57 95.45 21.42 95.65 21.13C95.75 20.97 95.81 20.58 95.81 19.98L95.81 13.1C95.81 12.43 95.73 12.01 95.59 11.85C95.39 11.62 95.09 11.5 94.68 11.5L94.28 11.5L94.28 11.21L98.19 11.21C99.14 11.21 99.89 11.31 100.44 11.51C100.99 11.7 101.45 12.03 101.83 12.5C102.21 12.97 102.4 13.52 102.4 14.16C102.4 15.03 102.11 15.73 101.54 16.28C100.96 16.82 100.15 17.09 99.1 17.09C98.85 17.09 98.57 17.08 98.27 17.04C97.97 17 97.65 16.95 97.31 16.87ZM97.31 16.43C97.59 16.48 97.84 16.52 98.05 16.54C98.27 16.57 98.45 16.58 98.6 16.58C99.15 16.58 99.62 16.37 100.01 15.95C100.41 15.53 100.6 14.98 100.6 14.31C100.6 13.85 100.51 13.42 100.32 13.03C100.13 12.63 99.87 12.34 99.52 12.14C99.18 11.95 98.78 11.85 98.34 11.85C98.08 11.85 97.73 11.9 97.31 12L97.31 16.43Z" />
					<path id="Layer" class="shp2" d="M107.02 14.45L107.02 16.07C107.62 14.99 108.24 14.45 108.87 14.45C109.16 14.45 109.4 14.54 109.58 14.72C109.77 14.89 109.87 15.1 109.87 15.33C109.87 15.53 109.8 15.7 109.66 15.84C109.53 15.99 109.37 16.06 109.18 16.06C108.99 16.06 108.79 15.97 108.56 15.79C108.33 15.61 108.16 15.52 108.05 15.52C107.96 15.52 107.86 15.57 107.75 15.67C107.51 15.89 107.27 16.24 107.02 16.73L107.02 20.18C107.02 20.58 107.07 20.88 107.17 21.08C107.23 21.23 107.35 21.34 107.53 21.44C107.7 21.53 107.95 21.58 108.27 21.58L108.27 21.86L104.59 21.86L104.59 21.58C104.96 21.58 105.23 21.52 105.41 21.41C105.54 21.32 105.63 21.19 105.68 21.01C105.71 20.92 105.72 20.66 105.72 20.24L105.72 17.46C105.72 16.62 105.7 16.12 105.67 15.96C105.64 15.8 105.57 15.68 105.48 15.61C105.39 15.54 105.28 15.5 105.14 15.5C104.98 15.5 104.79 15.54 104.59 15.62L104.51 15.33L106.69 14.45L107.02 14.45L107.02 14.45Z" />
					<path id="Layer" class="shp2" d="M114.2 14.45L114.2 20.24C114.2 20.69 114.23 20.99 114.3 21.14C114.36 21.28 114.46 21.4 114.59 21.47C114.72 21.54 114.95 21.58 115.29 21.58L115.29 21.86L111.79 21.86L111.79 21.58C112.15 21.58 112.38 21.54 112.5 21.48C112.62 21.41 112.72 21.3 112.79 21.14C112.86 20.98 112.89 20.68 112.89 20.24L112.89 17.46C112.89 16.68 112.87 16.18 112.82 15.95C112.79 15.78 112.73 15.66 112.65 15.6C112.57 15.53 112.46 15.5 112.33 15.5C112.18 15.5 112 15.54 111.79 15.62L111.68 15.33L113.85 14.45L114.2 14.45L114.2 14.45ZM113.55 10.69C113.77 10.69 113.95 10.77 114.11 10.92C114.26 11.08 114.34 11.27 114.34 11.49C114.34 11.71 114.26 11.89 114.11 12.05C113.95 12.21 113.77 12.29 113.55 12.29C113.33 12.29 113.14 12.21 112.98 12.05C112.82 11.89 112.74 11.71 112.74 11.49C112.74 11.27 112.82 11.08 112.98 10.92C113.13 10.77 113.32 10.69 113.55 10.69Z" />
					<path id="Layer" class="shp2" d="M123.89 19.65L123.8 21.86L117.45 21.86L117.45 21.58L122.23 15.22L119.87 15.22C119.36 15.22 119.03 15.25 118.87 15.31C118.72 15.38 118.59 15.5 118.49 15.69C118.35 15.95 118.27 16.27 118.25 16.66L117.93 16.66L117.98 14.67L124.01 14.67L124.01 14.96L119.19 21.34L121.81 21.34C122.36 21.34 122.73 21.29 122.93 21.2C123.13 21.11 123.29 20.95 123.41 20.71C123.49 20.55 123.56 20.19 123.62 19.65L123.89 19.65L123.89 19.65Z" />
					<path id="Layer" fill-rule="evenodd" class="shp2" d="M127.43 17.38C127.42 18.44 127.68 19.28 128.21 19.89C128.73 20.5 129.35 20.8 130.05 20.8C130.52 20.8 130.93 20.67 131.28 20.41C131.63 20.15 131.92 19.71 132.16 19.08L132.4 19.24C132.29 19.96 131.97 20.61 131.44 21.2C130.91 21.79 130.25 22.08 129.46 22.08C128.59 22.08 127.85 21.75 127.24 21.07C126.62 20.4 126.31 19.49 126.31 18.36C126.31 17.13 126.63 16.17 127.26 15.48C127.89 14.79 128.68 14.45 129.64 14.45C130.44 14.45 131.11 14.71 131.62 15.24C132.14 15.78 132.4 16.49 132.4 17.38C132.4 17.38 127.43 17.38 127.43 17.38ZM127.43 16.92L130.76 16.92C130.73 16.46 130.68 16.14 130.6 15.95C130.46 15.65 130.27 15.42 130.01 15.26C129.75 15.09 129.48 15 129.2 15C128.76 15 128.37 15.17 128.03 15.51C127.69 15.85 127.49 16.32 127.43 16.92Z" />
					<path id="Layer" class="shp2" d="M139.46 14.45L139.46 16.91L139.2 16.91C139 16.14 138.74 15.61 138.43 15.33C138.12 15.06 137.72 14.92 137.24 14.92C136.88 14.92 136.58 15.02 136.36 15.21C136.13 15.4 136.02 15.62 136.02 15.85C136.02 16.15 136.1 16.4 136.27 16.61C136.43 16.82 136.76 17.05 137.26 17.29L138.41 17.85C139.47 18.37 140 19.05 140 19.9C140 20.55 139.75 21.08 139.26 21.48C138.76 21.88 138.21 22.08 137.6 22.08C137.16 22.08 136.65 22 136.09 21.85C135.92 21.79 135.77 21.77 135.66 21.77C135.54 21.77 135.45 21.84 135.38 21.97L135.12 21.97L135.12 19.4L135.38 19.4C135.53 20.14 135.81 20.69 136.22 21.06C136.64 21.43 137.1 21.62 137.61 21.62C137.97 21.62 138.27 21.51 138.5 21.3C138.72 21.09 138.84 20.83 138.84 20.53C138.84 20.17 138.71 19.87 138.46 19.62C138.2 19.38 137.7 19.07 136.94 18.69C136.18 18.31 135.68 17.97 135.44 17.67C135.21 17.37 135.09 16.99 135.09 16.54C135.09 15.94 135.29 15.45 135.7 15.05C136.11 14.65 136.63 14.45 137.27 14.45C137.56 14.45 137.9 14.51 138.3 14.64C138.57 14.71 138.75 14.75 138.84 14.75C138.92 14.75 138.99 14.73 139.03 14.7C139.08 14.66 139.14 14.58 139.2 14.45L139.46 14.45L139.46 14.45Z" />
				</g>
			</g>
		</g>
	</g>
</svg>